<svg width="180" height="40" viewBox="0 0 180 40" fill="none" xmlns="http://www.w3.org/2000/svg">
<path d="M20.9875 1.98465L22.0589 7.43619L20.6176 7.72706C19.7457 4.10004 16.6796 1.75989 12.8033 1.75989C8.05359 1.75989 4.51336 5.9657 4.51336 11.6097C4.51336 17.4299 8.1989 21.6754 13.2509 21.6754C17.2491 21.6754 20.0452 19.3793 21.1064 15.2308L22.5477 15.4159L21.9518 20.6809C18.2648 22.6082 15.592 23.3677 12.4906 23.3677C5.05643 23.3677 0 18.5288 0 11.4172C0 4.56425 4.89204 8.6658e-08 12.2367 8.6658e-08C15.1531 8.6658e-08 16.9188 0.379008 20.3783 1.74667C20.5134 1.79955 20.7174 1.87888 20.9875 1.98465Z" fill="#1E2938"/>
<path d="M49.4914 3.90339C50.1637 5.35037 50.4146 5.87188 51.2498 7.55538C51.9866 9.04203 52.4592 9.99836 52.6647 10.4273L53.8272 12.8483L54.9647 15.1502L55.361 15.9714C56.0274 14.6963 56.2549 14.2262 56.9344 12.7293L58.1908 9.96457L59.5133 7.06619L60.5965 4.60411L60.9018 3.90339H67.4715V4.78921C66.993 4.69813 66.8638 4.68344 66.5908 4.68344C64.7796 4.68344 64.4582 5.3019 64.4582 8.7732V15.6394C64.4582 18.9638 64.85 19.7424 66.5262 19.7424C66.7963 19.7424 67.1353 19.7042 67.5771 19.6234V20.5092H58.1644V19.6234C58.4477 19.7042 58.6928 19.7424 58.9203 19.7424C60.4967 19.7424 60.9018 18.905 60.9018 15.6394V7.18518C60.6875 7.60092 60.529 7.91382 60.4248 8.12536C60.3455 8.28548 59.9536 9.13164 59.2476 10.6653L57.9398 13.5108L56.4985 16.7647C55.7632 18.4247 55.3448 19.3781 55.2421 19.6234C55.1746 19.7879 55.0718 20.0347 54.9383 20.3638H53.8536L53.4837 19.5441C52.1319 16.5473 51.9 16.0463 50.9063 13.9985L49.5707 11.247C48.8779 9.82061 48.4332 8.91128 48.235 8.52052C48.0985 8.25316 47.893 7.85212 47.6142 7.3174V15.6394V16.4474C47.6142 18.9271 48.1822 19.7424 49.9097 19.7424C50.1901 19.7424 50.3501 19.7159 50.6157 19.6234V20.5092H43.3562V19.6234C43.6365 19.6968 43.9594 19.7468 44.1547 19.7468C45.8059 19.7468 46.186 18.977 46.186 15.6394V8.7732V7.96523C46.186 5.31659 45.8074 4.68344 44.2148 4.68344C43.8919 4.68344 43.7217 4.70841 43.4633 4.78921V3.90339H49.4914Z" fill="#1E2938"/>
<path d="M118.927 19.6231V20.5104H108.02V19.6231C108.536 19.7083 108.909 19.7421 109.317 19.7421C111.305 19.7421 111.695 19.0708 111.695 15.6406V8.77295C111.695 5.31487 111.325 4.68319 109.3 4.68319C108.842 4.68319 108.671 4.70082 108.244 4.79043V3.90314H118.834V4.79043C118.332 4.70375 118.112 4.68319 117.6 4.68319C115.542 4.68319 115.159 5.32368 115.159 8.77295V15.6406C115.159 19.0473 115.564 19.7421 117.556 19.7421C117.983 19.7421 118.46 19.701 118.927 19.6231Z" fill="#1E2938"/>
<path d="M158.999 4.30016L159.833 8.53388L158.59 8.75864C157.534 5.77946 155.843 4.44559 153.121 4.44559C149.234 4.44559 146.664 7.33516 146.664 11.7026C146.664 16.3505 149.528 19.65 153.561 19.65C154.563 19.65 155.303 19.5148 156.237 19.1593V15.071V14.5818C156.237 13.2964 155.807 12.822 154.643 12.822C154.508 12.822 154.307 12.8308 154.041 12.8484L153.843 12.8616V11.8818H162.119V12.8616L161.855 12.8484L161.512 12.822L161.403 12.8175C159.906 12.8175 159.592 13.248 159.592 15.3031C159.592 16.5048 159.629 18.2382 159.686 19.6632C158.703 19.8454 157.65 20.0584 156.805 20.2449C154.337 20.7914 153.317 20.9339 151.875 20.9339C146.613 20.9339 143.036 17.4553 143.036 12.3401C143.036 6.93999 146.682 3.54655 152.485 3.54655C153.466 3.54655 154.574 3.63763 155.68 3.81097L157.122 4.03573L158.418 4.20761L158.999 4.30016Z" fill="#1E2938"/>
<path d="M177.904 3.90339L178.54 7.48927L177.548 7.67437C177.11 5.534 176.103 4.96108 172.782 4.96108C171.812 4.96108 171.154 5.02866 170.078 5.2402V11.0487H172.999C174.63 11.0487 175.091 10.6917 175.091 9.42838C175.091 9.22565 175.083 9.10519 175.048 8.81286H176.04V14.4627H175.048C175.097 13.9574 175.102 13.8575 175.102 13.668C175.102 12.5721 174.556 12.1872 172.999 12.1872H170.078V19.0417H173.159H173.661C176.431 19.0417 177.323 18.479 178.355 16.0904C178.395 15.9964 178.456 15.8554 178.54 15.6673L179.597 16.0375L178.036 20.5092H162.992V19.6234C163.459 19.7057 163.874 19.7424 164.316 19.7424C166.244 19.7424 166.667 19.0049 166.667 15.6394V8.7732C166.667 5.35184 166.269 4.68344 164.244 4.68344C163.805 4.68344 163.594 4.70547 163.217 4.78921V3.90339H177.904Z" fill="#1E2938"/>
<path d="M1.28857 29.3884V28.8199H7.22419V29.3884L7.07888 29.362L6.8411 29.3355L6.59012 29.3091L6.52847 29.3076C5.75643 29.3076 5.31463 29.8556 5.29409 30.8442L5.28088 31.4788L5.26767 31.9827V35.3306C5.26767 37.8 6.22758 38.9033 8.37638 38.9033C10.2081 38.9033 11.4557 37.6957 11.4557 35.9256V35.3306V31.9827V31.4524C11.4557 29.8468 11.1226 29.3047 10.1406 29.3047L10.0672 29.3091L9.84267 29.3355L9.53884 29.362L9.41848 29.3884V28.8199H14.4558V29.3884L14.3237 29.362L14.0595 29.3355L13.7953 29.3091L13.6985 29.3047C12.6652 29.3047 12.3408 29.8174 12.3408 31.4524V31.9827V35.3306C12.3408 38.4729 10.9039 39.8816 7.69827 39.8816C4.79945 39.8816 3.06016 38.4567 3.06016 36.0842V35.291V31.9827L3.04695 31.4788L3.02053 30.8442C2.97796 29.8262 2.57286 29.3091 1.8199 29.3091C1.71129 29.3091 1.47938 29.3444 1.28857 29.3884Z" fill="#1E2938"/>
<path d="M19.4143 28.8193L19.7049 29.1631L20.75 30.5396L22.0049 32.1143L23.2085 33.6098C23.6341 34.1387 23.9952 34.5794 24.2917 34.9334C24.848 35.593 25.1782 35.9896 25.2839 36.1248C25.3558 36.2144 25.4615 36.351 25.6009 36.5332V31.9821V31.4533C25.6009 29.8932 25.2296 29.3085 24.2359 29.3085C24.2139 29.3085 24.1273 29.3173 23.9746 29.335L23.7501 29.3629L23.6312 29.3878V28.8193H28.444V29.3878C28.2825 29.3452 28.0066 29.3085 27.826 29.3085C26.8133 29.3085 26.4346 29.8932 26.4346 31.4533V31.9821V39.4315C26.2409 39.5505 26.2174 39.5638 25.9458 39.7092C25.7257 39.8267 25.6508 39.8708 25.4424 40.0001C25.3132 39.8429 25.2164 39.7239 25.1518 39.6431C25.005 39.4609 24.5911 38.9321 23.9086 38.0551C23.5035 37.5336 23.1292 37.062 22.7858 36.6404C22.3498 36.1042 22.068 35.7516 21.9389 35.5812C21.7657 35.3506 21.6688 35.2228 21.6482 35.1978L18.3429 31.0287V36.4421L18.3561 36.9709L18.3693 37.6188C18.3898 38.6074 18.8346 39.101 19.7064 39.101C19.9412 39.101 20.091 39.0819 20.2465 39.0349V39.6166H15.4205V39.0349C15.607 39.079 15.8389 39.101 16.1177 39.101C17.1246 39.101 17.4578 38.5736 17.4578 36.9709V36.4421V31.9821V31.4533C17.4578 29.8638 17.0923 29.3085 16.0487 29.3085H16.0032L15.6862 29.335L15.4205 29.3629L15.2899 29.3878V28.8193H19.4143Z" fill="#1E2938"/>
<path d="M36.6409 39.035V39.6168H29.5413V39.035C29.7952 39.0806 30.0712 39.1011 30.4278 39.1011C31.398 39.1011 31.8883 38.6105 31.9073 37.6189L31.9206 36.971L31.9338 36.4407V31.9822L31.9206 31.4534L31.9073 30.8041C31.8883 29.8213 31.3819 29.3086 30.4293 29.3086C30.3941 29.3086 30.2752 29.3174 30.0697 29.3351L29.8187 29.363L29.6998 29.388V28.8194H36.5748V29.388L36.4163 29.363L36.111 29.3351C35.8175 29.313 35.7558 29.3086 35.6868 29.3086C34.5522 29.3086 34.1956 29.8213 34.1956 31.4534V31.9822V36.4407V36.971C34.1956 38.6178 34.5361 39.1011 35.7 39.1011C36.067 39.1011 36.3708 39.0791 36.6409 39.035Z" fill="#1E2938"/>
<path d="M49.3196 28.8195V29.388L49.1083 29.3483C48.9454 29.3189 48.8661 29.3087 48.7824 29.3087C48.0603 29.3087 47.6097 29.6318 47.3235 30.3546L47.0197 31.1229L46.6087 32.1409L46.2652 33.0547L46.0935 33.5042L43.6878 39.9473H42.973C42.7221 39.3215 42.6619 39.1658 42.3126 38.2418C41.8737 37.0769 41.7034 36.6391 41.1618 35.2641L40.4221 33.3852C40.1623 32.7256 39.9333 32.1615 39.7352 31.6914C39.4431 31.0024 39.2802 30.6132 39.2449 30.5265C38.8883 29.6333 38.489 29.3087 37.7493 29.3087C37.4557 29.3087 37.2004 29.3366 36.9978 29.388V28.8195H42.973V29.388L42.7881 29.363L42.5503 29.3351L42.3786 29.3087L42.317 29.3043C41.8253 29.3043 41.5053 29.5408 41.5053 29.9066C41.5053 30.0446 41.5229 30.1137 41.6256 30.3811C41.6344 30.4075 41.6755 30.5191 41.7445 30.7116C41.7724 30.7924 41.8047 30.8761 41.837 30.9628L43.952 36.548L46.186 30.5926L46.252 30.4075L46.3181 30.196L46.3724 30.0505L46.387 29.9051C46.387 29.4864 46.1214 29.3057 45.502 29.3057C45.4022 29.3057 45.3068 29.316 45.2217 29.3351L45.0485 29.3762L44.9178 29.388V28.8195H49.3196Z" fill="#1E2938"/>
<path d="M59.3808 28.8194L59.7903 31.1478L59.1562 31.2668C58.9023 29.8918 58.1905 29.4923 55.9976 29.4923C55.5353 29.4923 55.2696 29.5187 54.6209 29.6259L54.3038 29.6803V33.4513H56.1943H56.4585C57.2261 33.4513 57.5579 33.1413 57.5579 32.423C57.5579 32.2937 57.5491 32.2055 57.5168 31.9955H58.164V35.6739H57.5168C57.5652 35.3346 57.5696 35.2964 57.5696 35.1656C57.5696 34.5545 57.185 34.2049 56.5113 34.2049H56.1943H54.3038V38.6516H56.3H56.6302C58.4972 38.6516 59.1445 38.2021 59.7903 36.454L60.4787 36.7066L59.4733 39.6168H49.6892V39.035C49.9431 39.0806 50.2205 39.1011 50.5743 39.1011C51.7088 39.1011 52.0699 38.5884 52.0699 36.971V36.4422V31.9822V31.4534C52.0699 29.8595 51.6927 29.3086 50.6036 29.3086C50.5449 29.3086 50.4157 29.3174 50.2191 29.3351L49.9666 29.363L49.8345 29.388V28.8194H59.3808Z" fill="#1E2938"/>
<path d="M83.1382 29.0446V31.8107H82.5173C82.2692 30.0832 81.4869 29.309 79.9883 29.309C78.8479 29.309 78.0083 29.9686 78.0083 30.8647C78.0083 31.5698 78.4472 32.0428 79.6082 32.5908L80.7853 33.1461C82.9283 34.1597 83.6812 35.0235 83.6812 36.4793C83.6812 38.4625 81.8597 39.8301 79.2207 39.8301C78.5279 39.8301 77.9643 39.7508 76.7534 39.4849C76.4011 39.4071 76.3278 39.3953 76.0518 39.3645L76.1443 36.2163H76.818C76.9002 37.9322 77.9482 39.0486 79.4732 39.0486C80.6459 39.0486 81.5383 38.2304 81.5383 37.1595C81.5383 36.2031 81.1391 35.827 78.9081 34.6812C76.68 33.5383 76.0914 32.8905 76.0914 31.583C76.0914 29.8055 77.6693 28.6083 80.0162 28.6083C80.6606 28.6083 81.4135 28.714 82.1856 28.9124C82.6479 29.0314 82.7389 29.046 83.0105 29.046L83.1382 29.0446Z" fill="#1E2938"/>
<path d="M92.9742 39.035V39.6168H85.8879V39.035C86.1403 39.0806 86.4221 39.1011 86.7773 39.1011C87.9251 39.1011 88.2686 38.6105 88.2686 36.971V36.4407V31.9822V31.4534C88.2686 29.8198 87.9119 29.3086 86.7744 29.3086C86.7304 29.3086 86.6115 29.3174 86.4177 29.3351L86.1653 29.363L86.0332 29.388V28.8194H92.9214V29.388L92.7629 29.363L92.4458 29.3351C92.1141 29.3101 92.0921 29.3086 92.0304 29.3086C91.0823 29.3086 90.5759 29.8228 90.5553 30.8041L90.5421 31.4534L90.5289 31.9822V36.4407L90.5421 36.971L90.5553 37.6189C90.5759 38.6149 91.0647 39.1011 92.0451 39.1011C92.4003 39.1011 92.7071 39.0791 92.9742 39.035Z" fill="#1E2938"/>
<path d="M103.392 28.8194L103.67 31.7575H103.009L102.97 31.4666C102.772 30.0152 102.523 29.6832 101.608 29.6406L101.33 29.6259H99.9021V36.4422V36.9446C99.9021 38.5488 100.237 39.1011 101.211 39.1011C101.424 39.1011 101.641 39.0776 101.819 39.035V39.6168H95.6984V39.035C95.9024 39.0791 96.1197 39.1011 96.334 39.1011C97.1354 39.1011 97.5801 38.562 97.6021 37.566L97.6153 36.9446L97.6285 36.4422V29.6259H96.0287C95.0115 29.6259 94.7033 30.0799 94.5741 31.7575H93.8872L94.1514 28.8194H103.392Z" fill="#1E2938"/>
<path d="M116.878 28.8194V29.388C116.631 29.3219 116.533 29.3086 116.278 29.3086C115.715 29.3086 115.256 29.5305 114.961 29.9447L114.631 30.4075L114.301 30.8702L114.102 31.1875L111.775 34.7337V36.4422L111.788 36.9446L111.801 37.566C111.821 38.5532 112.279 39.1011 113.084 39.1011C113.33 39.1011 113.528 39.0806 113.744 39.035V39.6168H107.609V39.035C107.822 39.0806 108.024 39.1011 108.264 39.1011C109.072 39.1011 109.532 38.5547 109.552 37.566L109.567 36.9446L109.579 36.4422V34.8145L107.743 32.1673L107.465 31.7575L106.909 30.976L106.407 30.262C105.892 29.529 105.517 29.3086 104.785 29.3086C104.631 29.3086 104.531 29.3189 104.226 29.363L104.039 29.388V28.8194H109.963V29.388L109.818 29.363L109.633 29.3351C109.51 29.3174 109.433 29.3086 109.41 29.3086C109.046 29.3086 108.773 29.526 108.773 29.8169C108.773 29.9726 108.81 30.0696 108.959 30.2885L111.35 33.8347L113.269 30.8438L113.388 30.619L113.573 30.3414C113.709 30.1357 113.784 29.9447 113.784 29.8008C113.784 29.5143 113.489 29.3086 113.076 29.3086C113.054 29.3086 112.974 29.3174 112.833 29.3351L112.621 29.363L112.488 29.388V28.8194H116.878Z" fill="#1E2938"/>
<path d="M156.62 28.8194L157.016 31.1478L156.368 31.2668C156.183 29.9256 155.415 29.4923 153.219 29.4923C152.748 29.4923 152.424 29.5246 151.834 29.6259L151.53 29.6803V33.4513H153.42H153.685C154.433 33.4513 154.782 33.1501 154.782 32.5052L154.769 32.1806L154.756 31.9955H155.403V35.6739H154.756L154.769 35.4888L154.794 35.1979L154.799 35.1171C154.799 34.5501 154.396 34.2049 153.737 34.2049H153.42H151.53V38.6516H153.526H153.856C155.659 38.6516 156.241 38.2829 156.897 36.7316C156.924 36.6714 156.963 36.5788 157.016 36.454L157.703 36.7066L156.699 39.6168H146.915V39.035C147.169 39.0806 147.447 39.1011 147.802 39.1011C148.751 39.1011 149.262 38.5899 149.281 37.6189L149.294 36.971L149.309 36.4422V31.9822L149.294 31.4534L149.281 30.8041C149.262 29.8551 148.734 29.3086 147.836 29.3086C147.796 29.3086 147.665 29.3174 147.444 29.3351L147.179 29.363L147.061 29.388V28.8194H156.62Z" fill="#1E2938"/>
<path d="M167.09 29.0447V31.8109H166.481C166.242 30.098 165.441 29.3091 163.938 29.3091C162.81 29.3091 161.974 29.9628 161.974 30.8442C161.974 31.5641 162.415 32.0503 163.56 32.5909L164.736 33.1462C166.92 34.1775 167.633 34.9957 167.633 36.4677C167.633 38.4788 165.835 39.8317 163.166 39.8317C162.512 39.8317 161.808 39.7318 160.706 39.485C160.333 39.4013 160.276 39.391 160.004 39.3646L160.11 36.2165H160.772C160.93 38.0189 161.899 39.0487 163.43 39.0487C164.594 39.0487 165.504 38.2202 165.504 37.164C165.504 36.2165 165.047 35.7846 162.872 34.6813C160.653 33.5546 160.057 32.9053 160.057 31.614C160.057 29.8056 161.616 28.6084 163.97 28.6084C164.642 28.6084 165.298 28.6995 166.138 28.9125C166.569 29.0212 166.719 29.0462 166.949 29.0462L167.09 29.0447Z" fill="#1E2938"/>
<path d="M177.35 29.0446V31.8107H176.727C176.479 30.0714 175.706 29.309 174.19 29.309C173.07 29.309 172.22 29.9789 172.22 30.8618C172.22 31.5698 172.646 32.0296 173.82 32.5908L174.984 33.1461C177.21 34.2111 177.893 34.9882 177.893 36.469C177.893 38.4698 176.086 39.8301 173.434 39.8301C172.741 39.8301 172.174 39.7508 170.963 39.4849C170.611 39.4071 170.538 39.3953 170.262 39.3645L170.356 36.2163H171.03C171.112 37.9248 172.163 39.0486 173.679 39.0486C174.859 39.0486 175.75 38.226 175.75 37.1404C175.75 36.1899 175.361 35.8256 173.118 34.6812C170.899 33.5486 170.315 32.9066 170.315 31.5948C170.315 29.7938 171.865 28.6083 174.22 28.6083C174.885 28.6083 175.624 28.7111 176.397 28.9124C176.843 29.0284 176.95 29.046 177.229 29.046L177.35 29.0446Z" fill="#1E2938"/>
<path d="M33.2696 2.89808L36.2844 10.4533L36.4561 10.8896C39.5076 18.6416 40.1989 19.7551 41.9631 19.7551C42.1818 19.7551 42.4534 19.7066 42.7087 19.6229V20.5102H33.5338V19.6229C33.9374 19.7257 34.071 19.7434 34.4467 19.7434C35.3802 19.7434 35.8367 19.407 35.8367 18.715C35.8367 18.5211 35.7648 18.2244 35.6356 17.8762L34.6449 15.2173H28.9999L28.219 17.2416L28.0737 17.6383L27.902 18.101C27.8433 18.2905 27.8066 18.5109 27.8066 18.6813C27.8066 19.357 28.3834 19.7551 29.3595 19.7551C29.6897 19.7551 29.8424 19.7345 30.3341 19.6229V20.5102H23.0628V19.6229C23.4253 19.7096 23.5868 19.7316 23.8451 19.7316C25.1705 19.7316 25.809 19.0338 26.9098 16.3822L27.3325 15.3627L27.585 14.7663L32.5152 2.89808H33.2696ZM31.6477 8.15131L29.449 13.9995L33.9624 14.0656L31.6477 8.15131Z" fill="#1E2938"/>
<path d="M69.4943 4.78979V3.90397H74.6901H75.4181C75.9509 3.90397 76.8331 3.87899 78.2994 3.82464C79.0127 3.79673 79.5572 3.7835 79.9344 3.7835C82.961 3.7835 84.7648 5.10269 84.7648 7.31357C84.7648 9.44512 83.3382 10.8333 80.5201 11.4459C83.8548 11.6883 85.4253 13.006 85.4253 15.5592C85.4253 18.8013 82.8788 20.5641 78.1922 20.5641C77.8517 20.5641 77.3233 20.5539 76.607 20.5362L74.994 20.5098H74.2938H69.2433V19.6225C69.7247 19.7062 70.1107 19.743 70.5525 19.743C72.512 19.743 72.9053 19.0569 72.9053 15.64V8.7723C72.9053 5.30688 72.5384 4.68402 70.4953 4.68402C70.0726 4.68402 69.939 4.69871 69.4943 4.78979ZM76.2107 11.1022C76.5938 11.1668 77.0914 11.2726 77.5038 11.2726C79.7554 11.2726 81.4198 9.65372 81.4198 7.55008C81.4198 5.90037 79.9975 4.67079 78.0895 4.67079C77.5141 4.67079 77.1765 4.73984 76.2107 5.05421V11.1022ZM76.2107 19.2259C76.9578 19.3948 77.5449 19.4638 78.201 19.4638C80.3571 19.4638 81.8689 17.8185 81.8689 15.4755C81.8689 13.3321 80.3219 12.1173 77.589 12.1173C77.1384 12.1173 76.9065 12.1422 76.2107 12.2656V19.2259Z" fill="#1E2938"/>
<path d="M88.1751 4.78982V3.904H93.0672H93.6352L94.8784 3.86434L96.148 3.82467C97.2283 3.78942 97.5982 3.7806 97.877 3.7806C101.626 3.7806 103.472 5.10272 103.472 7.79103C103.472 10.2502 102.001 11.6913 99.1613 12.0145C100.817 12.8915 101.42 13.5467 102.625 15.7854C104.235 18.7734 105.135 19.6901 106.452 19.6901C106.597 19.6901 106.666 19.6842 107.2 19.6225V20.5098H105.402H104.874L104.067 20.5363L103.358 20.5524C101.733 20.5524 101.025 20.0265 99.9686 18.036L99.2949 16.7653C97.5394 13.4585 96.7733 12.771 94.8256 12.7563V15.64C94.8256 19.0746 95.2086 19.743 97.1857 19.743C97.56 19.743 97.877 19.7092 98.3159 19.6225V20.5098H87.9109V19.6225C88.4056 19.7048 88.8166 19.743 89.207 19.743C91.0167 19.7415 91.5862 18.9527 91.5862 16.448V15.64V8.77234V7.96584C91.5862 5.45382 91.0329 4.68258 89.229 4.68258C88.821 4.68258 88.5538 4.71049 88.1751 4.78982ZM94.8256 11.8162C95.3334 11.8632 95.5536 11.8749 95.919 11.8749C98.5346 11.8749 99.9422 10.5396 99.9422 8.05692C99.9422 6.00176 98.627 4.6297 96.6603 4.6297C96.104 4.6297 95.4156 4.74428 94.8256 4.93525V11.8162Z" fill="#1E2938"/>
<path d="M120.818 4.79003V3.90421H125.987H126.595L127.785 3.86455L129.199 3.82489C130.178 3.79551 130.848 3.78228 131.214 3.78228C137.015 3.78228 140.081 6.35601 140.081 11.2199C140.081 16.8962 136.066 20.5629 129.847 20.5629L128.01 20.5233L126.806 20.51H125.987H120.631V19.6227C121.107 19.7021 121.563 19.7432 121.979 19.7432C123.968 19.7432 124.374 19.0469 124.374 15.6402V8.77255C124.374 5.32329 123.993 4.68426 121.932 4.68426C121.458 4.68426 121.268 4.70189 120.818 4.79003ZM127.812 19.1071C128.908 19.4597 129.53 19.5713 130.424 19.5713C134.054 19.5713 136.366 16.4497 136.366 11.5461C136.366 7.24771 134.169 4.76359 130.367 4.76359C129.5 4.76359 128.788 4.88111 127.812 5.18667V19.1071Z" fill="#1E2938"/>
<path d="M61.9325 29.3884V28.8199H65.1175L65.4889 28.8067L66.2947 28.7934L67.1152 28.7655C67.5614 28.7494 67.9826 28.7391 68.2204 28.7391C70.6906 28.7391 71.8883 29.5867 71.8883 31.3334C71.8883 32.9287 70.9357 33.863 69.0849 34.0863C70.2004 34.7136 70.5204 35.0618 71.332 36.5337C72.5341 38.7137 72.8996 39.0648 73.9725 39.0648C74.0621 39.0648 74.134 39.0575 74.294 39.0355V39.6172H73.1432H72.7866L72.2567 39.6304L71.9162 39.6348C70.7258 39.6348 70.3002 39.3337 69.6001 38.0027C69.4093 37.6414 69.264 37.3637 69.1642 37.1698C68.0692 35.0632 67.5555 34.6034 66.2551 34.5623V36.4412V36.9715C66.2551 38.5992 66.6103 39.1016 67.7624 39.1016C68.078 39.1016 68.3202 39.081 68.5286 39.0355V39.6172H61.7725V39.0355C62.0235 39.0795 62.3039 39.1016 62.6473 39.1016C63.7907 39.1016 64.1532 38.5889 64.1532 36.9715V36.4412V31.9827V31.4524C64.1532 29.8746 63.7716 29.3091 62.7075 29.3091C62.6796 29.3091 62.5622 29.3179 62.3552 29.3355L62.0646 29.362L61.9325 29.3884ZM66.2551 33.9541C66.6235 33.9879 66.7746 33.9952 67.033 33.9952C68.6695 33.9952 69.5737 33.1212 69.5737 31.5361C69.5737 30.1435 68.7517 29.2826 67.4249 29.2826C67.0623 29.2826 66.6616 29.3502 66.2551 29.4809V33.9541Z" fill="#1E2938"/>
<path d="M126.82 34.6681V36.4412L126.833 36.9436L126.846 37.565C126.868 38.5801 127.36 39.1016 128.298 39.1016C128.596 39.1016 128.834 39.0811 129.067 39.0355V39.6172H122.535V39.0355C122.75 39.0811 122.976 39.1016 123.277 39.1001C124.37 39.1001 124.744 38.5507 124.744 36.9436V36.4412V31.9827V31.4789C124.744 29.8879 124.36 29.3091 123.302 29.3091C123.234 29.3091 123.106 29.3179 122.92 29.3356L122.656 29.362L122.496 29.3884V28.8199H125.682L126.04 28.8067L126.714 28.7935L127.626 28.7656C128.119 28.748 128.475 28.7391 128.694 28.7391C131.283 28.7391 132.438 29.5794 132.438 31.4598C132.438 33.4224 130.789 34.7636 128.374 34.7636L128.208 34.7607L127.56 34.7342C127.14 34.7166 127.106 34.7136 126.82 34.6681ZM126.82 33.9277C127.248 33.9894 127.464 34.0085 127.765 34.0085C129.267 34.0085 130.166 33.086 130.166 31.5464C130.166 30.1817 129.328 29.3091 128.015 29.3091C127.639 29.3091 127.259 29.3855 126.82 29.5471V33.9277Z" fill="#1E2938"/>
<path d="M133.999 29.3884V28.8199H137.172L137.555 28.8067L138.361 28.7934L139.181 28.7655C139.629 28.7494 140.04 28.7391 140.275 28.7391C142.771 28.7391 143.941 29.5706 143.941 31.3481C143.941 32.9434 142.989 33.8718 141.138 34.0863C142.19 34.6431 142.611 35.1 143.398 36.5337C144.584 38.6961 144.969 39.0648 146.04 39.0648C146.128 39.0648 146.2 39.0575 146.36 39.0355V39.6172H145.196H144.853L144.324 39.6304L143.982 39.6348C142.792 39.6348 142.366 39.3337 141.668 38.0027C141.477 37.6414 141.331 37.3637 141.23 37.1698C140.135 35.0632 139.622 34.6034 138.321 34.5623V36.4412V36.9715C138.321 38.6065 138.67 39.1016 139.826 39.1016C140.121 39.1016 140.364 39.081 140.596 39.0355V39.6172H133.827V39.0355C134.07 39.0781 134.376 39.1016 134.725 39.1016C135.852 39.1016 136.219 38.5771 136.219 36.9715V36.4412V31.9827V31.4524C136.219 29.8776 135.835 29.3091 134.772 29.3091C134.746 29.3091 134.628 29.3179 134.421 29.3355L134.131 29.362L133.999 29.3884ZM138.321 33.9541C138.678 33.9879 138.825 33.9952 139.078 33.9952C140.736 33.9952 141.64 33.1256 141.64 31.5317C141.64 30.1508 140.81 29.2826 139.489 29.2826C139.106 29.2826 138.706 29.3517 138.321 29.4809V33.9541Z" fill="#1E2938"/>
</svg>
