<svg width="70" height="40" viewBox="0 0 70 40" fill="none" xmlns="http://www.w3.org/2000/svg">
<path d="M9.21718 27.4595C8.9808 27.6462 8.93103 27.9571 9.06789 28.3926C9.19229 28.7783 9.48465 29.2572 9.94496 29.8295C11.7986 32.1187 14.0068 34.022 16.5696 35.5399C19.1325 37.0577 21.8757 38.1773 24.7993 38.8988C27.7353 39.6329 30.7335 39.9998 33.7939 39.9998C37.7127 39.9998 41.445 39.4276 44.9906 38.283C48.5362 37.1509 51.4971 35.5584 53.8734 33.5057C54.7068 32.7718 55.1236 32.1871 55.1236 31.7516C55.1236 31.5899 55.0552 31.4281 54.9184 31.2664C54.7317 31.0799 54.5078 31.0177 54.2465 31.0799C53.9853 31.142 53.6183 31.2975 53.1455 31.5464C50.8689 32.7407 48.0946 33.6924 44.8227 34.4015C41.5632 35.1231 38.1606 35.4838 34.615 35.4838C30.2235 35.4838 25.9811 34.8867 21.8881 33.6924C17.7951 32.498 14.1686 30.632 11.0086 28.0941C10.5484 27.7333 10.1751 27.5031 9.88897 27.4035C9.61528 27.304 9.39134 27.3227 9.21718 27.4595Z" fill="#1E2938"/>
<path d="M50.6815 28.3936C50.4202 28.6425 50.3518 28.9037 50.4762 29.1775C50.5634 29.3765 50.7313 29.4885 50.9801 29.5134C51.2289 29.5507 51.5834 29.5258 52.0437 29.4388C52.7902 29.277 53.5677 29.165 54.3764 29.1028C55.1851 29.0531 55.888 29.0655 56.4851 29.1401C57.0823 29.2272 57.4555 29.3765 57.6049 29.588C57.8288 29.924 57.7479 30.633 57.3622 31.7154C56.989 32.7977 56.4789 33.8489 55.832 34.8691C55.5831 35.2796 55.4339 35.6031 55.3841 35.8395C55.3344 36.0759 55.3966 36.2749 55.5707 36.4366C55.6827 36.5485 55.8071 36.6046 55.9439 36.6046C56.3048 36.6046 56.8273 36.2873 57.5115 35.6529C58.7432 34.583 59.6077 33.314 60.1055 31.846C60.3791 31.0871 60.547 30.2909 60.6092 29.4573C60.6715 28.6239 60.5781 28.0267 60.3293 27.6659C60.0929 27.3175 59.5704 27.0314 58.7618 26.8075C57.9656 26.5836 57.1632 26.4716 56.3545 26.4716C54.7745 26.4716 53.2754 26.8448 51.8572 27.5913C51.3347 27.8774 50.9428 28.1449 50.6815 28.3936Z" fill="#1E2938"/>
<path d="M12.8056 21.3819C13.07 21.3819 13.2168 21.1175 13.0993 20.8826L8.48814 11.8951L12.6588 6.40282C12.8644 6.13849 12.7175 5.87415 12.3944 5.87415H8.81122C8.57625 5.87415 8.40003 5.99163 8.25318 6.16786L4.08253 11.9539H3.96505V1.35106C3.96505 1.05735 3.75945 0.822388 3.49512 0.822388H0.440561C0.176227 0.822388 0 1.05735 0 1.35106V20.8826C0 21.1763 0.176227 21.3819 0.440561 21.3819H3.49512C3.75945 21.3819 3.96505 21.1763 3.96505 20.8826V17.7987L5.75666 15.2434H5.90352L8.86996 21.0882C8.95807 21.2644 9.16367 21.3819 9.33989 21.3819H12.8056Z" fill="#1E2938"/>
<path d="M16.1417 0C17.4047 0 18.462 0.822379 18.462 2.29091C18.462 3.70071 17.4047 4.55246 16.1417 4.55246C14.9082 4.55246 13.8508 3.70071 13.8508 2.29091C13.8508 0.822379 14.9082 0 16.1417 0ZM14.1739 20.8826V6.3147C14.1739 6.05037 14.4089 5.87414 14.7026 5.87414H17.669C17.9334 5.87414 18.139 6.05037 18.139 6.3147V20.8826C18.139 21.1763 17.9334 21.3819 17.669 21.3819H14.7026C14.4089 21.3819 14.1739 21.1763 14.1739 20.8826Z" fill="#1E2938"/>
<path d="M28.4004 5.52173C31.2493 5.52173 33.0116 7.87138 33.0116 11.6602V20.8826C33.0116 21.1763 32.8353 21.3819 32.5416 21.3819H29.5458C29.2521 21.3819 29.0465 21.1763 29.0465 20.8826V11.9539C29.0465 10.1623 28.2829 9.1637 26.9025 9.1637C25.4046 9.1637 24.5822 10.3385 24.5822 12.4826V20.8826C24.5822 21.1763 24.3766 21.3819 24.0829 21.3819H21.0871C20.7934 21.3819 20.6171 21.1763 20.6171 20.8826V6.34411C20.6171 6.0504 20.8227 5.87418 21.0871 5.87418H23.5836C23.8479 5.87418 24.0241 6.0504 24.0829 6.34411L24.4647 8.19446H24.6115C25.2871 6.46159 26.6381 5.52173 28.4004 5.52173Z" fill="#1E2938"/>
<path d="M34.8556 13.628C34.8556 8.72311 36.9997 5.5217 40.1717 5.5217C41.8458 5.5217 43.0794 6.31471 43.9899 8.01821H44.1367V1.35106C44.1367 1.05735 44.313 0.822388 44.6067 0.822388H47.6025C47.8962 0.822388 48.0724 1.05735 48.0724 1.35106V20.8826C48.0724 21.1763 47.8962 21.3819 47.6025 21.3819H45.1353C44.871 21.3819 44.6948 21.2057 44.6067 20.8826L44.2248 19.091H44.1074C43.4318 20.6476 41.8752 21.705 40.1717 21.705C36.9997 21.705 34.8556 18.4742 34.8556 13.628ZM41.5815 18.3861C43.2556 18.3861 44.1955 16.6238 44.1955 13.628C44.1955 10.5441 43.2556 8.78185 41.5815 8.78185C39.9073 8.78185 38.9381 10.5441 38.9381 13.628C38.9381 16.6826 39.9073 18.3861 41.5815 18.3861Z" fill="#1E2938"/>
<path d="M50.9929 0.822388H54.0474C54.3118 0.822388 54.5174 1.05735 54.5174 1.35106V20.8826C54.5174 21.1763 54.3118 21.3819 54.0474 21.3819H50.9929C50.7285 21.3819 50.5523 21.1763 50.5523 20.8826V1.35106C50.5523 1.05735 50.7285 0.822388 50.9929 0.822388Z" fill="#1E2938"/>
<path d="M63.2035 5.52173C66.9923 5.52173 69.6063 8.84062 69.6063 13.5106V14.2742C69.6063 14.5973 69.4007 14.7735 69.1364 14.7735H60.5895C60.7657 17.2994 61.6175 18.5917 63.2035 18.5917C64.349 18.5917 65.2595 18.063 65.5825 16.6239C65.6413 16.3008 65.8175 16.1833 66.1112 16.242L68.9014 16.8588C69.1951 16.9176 69.342 17.1232 69.2245 17.4462C68.2846 20.2071 66.1112 21.705 63.2035 21.705C59.1797 21.705 56.4482 18.4742 56.4482 13.7162C56.4482 8.9581 59.2385 5.52173 63.2035 5.52173ZM65.5825 12.1595C65.3769 9.83922 64.5839 8.63502 63.2035 8.63502C61.8525 8.63502 60.9126 9.89796 60.6189 12.1595H65.5825Z" fill="#1E2938"/>
</svg>
