<svg width="67" height="84" viewBox="0 0 67 84" fill="none" xmlns="http://www.w3.org/2000/svg">
<path d="M27.8916 1.61621C30.9649 -0.525753 35.0436 -0.539223 38.1318 1.58105L62.5938 18.375C65.0387 20.0536 66.5 22.8292 66.5 25.7949V62.6758H42.96V62.0566C42.9599 60.9521 42.0645 60.0566 40.96 60.0566H27.96C26.8554 60.0566 25.96 60.9521 25.96 62.0566V62.6758H8.45996C5.42239 62.6758 2.95996 65.1382 2.95996 68.1758C2.95998 71.2133 5.42241 73.6758 8.45996 73.6758H8.99316C8.97265 73.7906 8.95997 73.9085 8.95996 74.0293V76.0566H7C3.13401 76.0566 0 72.9226 0 69.0566V25.7539C0.000131305 22.8108 1.43905 20.054 3.85352 18.3711L27.8916 1.61621Z" fill="#894AFD"/>
<path d="M10.96 81.3421V75.0278C10.96 73.9233 11.8554 73.0292 12.96 73.0292H16.96C18.0645 73.0292 18.96 73.9246 18.96 75.0292V81.1018C18.96 81.9121 18.0467 82.386 17.3842 81.9194L15.46 80.5643L12.4404 82.2183C11.774 82.5833 10.96 82.1019 10.96 81.3421Z" fill="#894AFD"/>
<rect x="8.95996" y="67.0292" width="58" height="3" rx="1.5" fill="#894AFD"/>
<rect x="20.96" y="73.0292" width="46" height="3" rx="1.5" fill="#894AFD"/>
<path d="M18.1711 40.9383V54.0292H16.0617L9.89338 45.1123H9.78471V54.0292H7.41326V40.9383H9.53542L15.6974 49.8616H15.8124V40.9383H18.1711ZM24.9994 54.2209C24.015 54.2209 23.1649 54.0164 22.449 53.6073C21.7373 53.1939 21.1897 52.6101 20.8062 51.8559C20.4227 51.0974 20.2309 50.2046 20.2309 49.1776C20.2309 48.1677 20.4227 47.2813 20.8062 46.5185C21.194 45.7515 21.7352 45.1549 22.4298 44.7287C23.1244 44.2984 23.9404 44.0832 24.8779 44.0832C25.483 44.0832 26.0541 44.1812 26.591 44.3772C27.1322 44.5689 27.6095 44.8672 28.0228 45.2721C28.4404 45.6769 28.7686 46.1925 29.0072 46.8189C29.2458 47.4411 29.3651 48.1826 29.3651 49.0434V49.7529H21.3176V48.1932H27.1471C27.1428 47.7501 27.047 47.3559 26.8595 47.0107C26.672 46.6613 26.4099 46.3864 26.0732 46.1861C25.7409 45.9859 25.3531 45.8857 24.9099 45.8857C24.4369 45.8857 24.0214 46.0008 23.6634 46.2309C23.3055 46.4567 23.0264 46.755 22.8261 47.1258C22.6301 47.4922 22.5299 47.8949 22.5257 48.3339V49.6954C22.5257 50.2664 22.6301 50.7564 22.8389 51.1655C23.0477 51.5704 23.3396 51.8814 23.7146 52.0988C24.0896 52.3118 24.5285 52.4184 25.0313 52.4184C25.368 52.4184 25.6727 52.3715 25.9454 52.2778C26.2181 52.1797 26.4546 52.037 26.6549 51.8495C26.8552 51.662 27.0065 51.4297 27.1088 51.1528L29.2693 51.3957C29.1329 51.9667 28.873 52.4653 28.4894 52.8914C28.1102 53.3133 27.6244 53.6414 27.032 53.8758C26.4397 54.1059 25.7622 54.2209 24.9994 54.2209ZM33.0038 44.211L34.9854 47.8353L36.9988 44.211H39.447L36.4875 49.1201L39.4981 54.0292H37.0628L34.9854 50.4944L32.9271 54.0292H30.4726L33.464 49.1201L30.5493 44.211H33.0038ZM47.4946 49.8999V44.211H49.8085V54.0292H47.5649V52.2841H47.4626C47.241 52.8339 46.8767 53.2834 46.3696 53.6329C45.8667 53.9823 45.2467 54.157 44.5095 54.157C43.866 54.157 43.2971 54.0143 42.8028 53.7287C42.3128 53.439 41.9292 53.0192 41.6523 52.4695C41.3753 51.9155 41.2368 51.2465 41.2368 50.4624V44.211H43.5507V50.1045C43.5507 50.7266 43.7211 51.2209 44.0621 51.5874C44.403 51.9539 44.8504 52.1371 45.4044 52.1371C45.7453 52.1371 46.0756 52.054 46.3952 51.8878C46.7148 51.7216 46.9768 51.4745 47.1814 51.1464C47.3902 50.814 47.4946 50.3985 47.4946 49.8999ZM59.9479 46.8062L57.8385 47.0363C57.7789 46.8232 57.6744 46.6229 57.5253 46.4354C57.3804 46.2479 57.1844 46.0966 56.9372 45.9816C56.6901 45.8665 56.3875 45.809 56.0296 45.809C55.548 45.809 55.1432 45.9134 54.8151 46.1222C54.4912 46.331 54.3314 46.6016 54.3357 46.934C54.3314 47.2195 54.4358 47.4518 54.6489 47.6307C54.8662 47.8097 55.2242 47.9567 55.7227 48.0718L57.3975 48.4297C58.3264 48.63 59.0168 48.9475 59.4685 49.3822C59.9244 49.8168 60.1546 50.3857 60.1588 51.0888C60.1546 51.7067 59.9735 52.2522 59.6155 52.7252C59.2618 53.1939 58.7696 53.5604 58.1389 53.8246C57.5083 54.0888 56.7838 54.2209 55.9656 54.2209C54.7639 54.2209 53.7966 53.9695 53.0637 53.4667C52.3307 52.9596 51.8939 52.2543 51.7533 51.3509L54.0097 51.1336C54.1119 51.5768 54.3293 51.9113 54.6617 52.1371C54.9941 52.363 55.4266 52.4759 55.9593 52.4759C56.509 52.4759 56.95 52.363 57.2824 52.1371C57.6191 51.9113 57.7874 51.6322 57.7874 51.2998C57.7874 51.0185 57.6787 50.7863 57.4614 50.603C57.2483 50.4198 56.9159 50.2792 56.4642 50.1812L54.7895 49.8296C53.8477 49.6336 53.151 49.3033 52.6993 48.8388C52.2476 48.3701 52.0239 47.7778 52.0281 47.0618C52.0239 46.4567 52.1879 45.9326 52.5203 45.4894C52.857 45.042 53.3236 44.6968 53.9202 44.4539C54.521 44.2067 55.2135 44.0832 55.9976 44.0832C57.1482 44.0832 58.0537 44.3282 58.7142 44.8182C59.379 45.3083 59.7902 45.9709 59.9479 46.8062Z" fill="#B3EB20"/>
</svg>
