<svg width="136" height="40" viewBox="0 0 136 40" fill="none" xmlns="http://www.w3.org/2000/svg">
<path d="M16.6751 14.5729C16.6751 13.9463 16.473 13.4612 16.0081 13.1783C15.7252 13.0166 15.1592 12.9559 14.6741 12.9559H11.2178V19.9292H14.9773C15.8464 19.9292 16.5337 20.1313 16.5943 20.8993H16.6751V14.5729Z" fill="#1E2938"/>
<path d="M16.6751 14.5729C16.6751 13.9463 16.473 13.4612 16.0081 13.1783C15.7252 13.0166 15.1592 12.9559 14.6741 12.9559H11.2178V19.9292H14.9773C15.8464 19.9292 16.5337 20.1313 16.5943 20.8993H16.6751V14.5729Z" stroke="#1E2938" stroke-width="1.057" stroke-miterlimit="3.8637"/>
<path d="M16.6751 14.5729C16.6751 13.9463 16.8772 13.4612 17.3421 13.1783C17.6251 13.0166 18.3123 12.9559 18.7772 12.9559H22.2537V19.9292H18.474C17.6049 19.9292 16.7964 20.1313 16.756 20.8993H16.6751V14.5729Z" fill="#1E2938"/>
<path d="M16.6751 14.5729C16.6751 13.9463 16.8772 13.4612 17.3421 13.1783C17.6251 13.0166 18.3123 12.9559 18.7772 12.9559H22.2537V19.9292H18.474C17.6049 19.9292 16.7964 20.1313 16.756 20.8993H16.6751V14.5729Z" stroke="#1E2938" stroke-width="1.057" stroke-miterlimit="3.8637"/>
<path d="M22.9812 13.4813V20.8588H17.6452L17.5846 21.0205C17.4835 21.2428 17.3218 21.4651 16.7356 21.4651C16.1495 21.4651 15.9878 21.2428 15.8867 21.0205L15.8261 20.8588H10.4901V13.4813H10.005V13.7036L9.5401 13.5622C9.47946 13.3803 9.31776 13.2388 9.11564 13.2388C8.87309 13.2388 8.67097 13.4409 8.67097 13.6834C8.67097 13.926 8.87309 14.1281 9.11564 14.1281C9.2167 14.1281 9.31776 14.0877 9.39861 14.027L10.005 14.209V14.7951L9.5401 14.7143C9.47946 14.5526 9.31776 14.4515 9.13585 14.4515C8.8933 14.4515 8.69118 14.6536 8.69118 14.8962C8.69118 15.1387 8.8933 15.3408 9.13585 15.3408C9.25712 15.3408 9.3784 15.2802 9.45925 15.1994L10.005 15.3004V15.9068L9.5401 15.8866C9.45925 15.7653 9.31776 15.6642 9.15606 15.6642C8.91352 15.6642 8.71139 15.8664 8.71139 16.1089C8.71139 16.3514 8.91352 16.5536 9.15606 16.5536C9.29755 16.5536 9.43903 16.4727 9.51988 16.3717L10.005 16.3919V17.0387L9.51988 17.0589C9.43903 16.9376 9.31776 16.877 9.15606 16.877C8.91352 16.877 8.71139 17.0791 8.71139 17.3216C8.71139 17.5642 8.91352 17.7663 9.15606 17.7663C9.31776 17.7663 9.45924 17.6855 9.51988 17.5642L9.98476 17.544V18.1503L9.45925 18.2312C9.3784 18.1503 9.25712 18.0897 9.13585 18.0897C8.8933 18.0897 8.69118 18.2918 8.69118 18.5344C8.69118 18.7769 8.8933 18.979 9.13585 18.979C9.31776 18.979 9.47946 18.878 9.5401 18.7163L9.98476 18.6354V19.2216L9.39861 19.4035C9.31776 19.3429 9.2167 19.3024 9.11564 19.3024C8.87309 19.3024 8.67097 19.5046 8.67097 19.7471C8.67097 19.9897 8.87309 20.1918 9.11564 20.1918C9.31776 20.1918 9.47946 20.0503 9.5401 19.8684L9.98476 19.7269V20.2928L9.33797 20.5758C9.27734 20.5354 9.19649 20.495 9.09543 20.495C8.85288 20.495 8.65076 20.6971 8.65076 20.9396C8.65076 21.1822 8.85288 21.3843 9.09543 21.3843C9.31776 21.3843 9.49967 21.2226 9.51988 21.0205L9.96455 20.8184V21.3439H15.5431C15.7655 21.7279 16.1495 21.93 16.7356 21.93C17.3218 21.93 17.7058 21.7279 17.9282 21.3439H23.4461V13.4813H22.9812Z" fill="#1E2938"/>
<path d="M13.0976 11.0358C11.9859 11.0358 11.0764 11.2177 11.0764 11.4198C11.0764 11.6421 11.9859 11.8038 13.0976 11.8038C14.2093 11.8038 15.1188 11.6219 15.1188 11.4198C15.1188 11.1975 14.2295 11.0358 13.0976 11.0358Z" fill="#1E2938"/>
<path d="M15.8869 8.61036L14.7145 9.43905L14.6943 9.51991L14.9773 9.64118C15.0379 9.66139 15.0379 9.72203 14.9975 9.74224L14.2699 10.3688H14.2092L13.6837 9.60076C13.6433 9.56033 13.6635 9.49969 13.7242 9.49969L14.0678 9.43905V9.35821L13.1582 8.08484H13.0167L12.1072 9.35821V9.43905L12.4508 9.49969C12.5114 9.51991 12.5316 9.56033 12.4912 9.60076L11.9657 10.3688H11.9051L11.2178 9.74224C11.1976 9.72203 11.1976 9.6816 11.238 9.64118L11.521 9.51991L11.5008 9.43905L10.2881 8.61036L10.187 8.65078L10.8944 10.8337C11.2583 10.672 12.087 10.5507 13.0571 10.5507C14.0273 10.5507 14.856 10.672 15.2199 10.8337L15.9273 8.65078L15.8869 8.61036Z" fill="#1E2938"/>
<path d="M16.7356 25.6293C15.6239 25.6293 14.7144 25.8112 14.7144 26.0133C14.7144 26.2356 15.6239 26.3973 16.7356 26.3973C17.8473 26.3973 18.7568 26.2154 18.7568 26.0133C18.7366 25.8112 17.8473 25.6293 16.7356 25.6293Z" fill="#1E2938"/>
<path d="M19.5048 23.2036L18.3325 24.0323V24.1132L18.6154 24.2344C18.6761 24.2547 18.6761 24.3153 18.6356 24.3355L17.908 24.9621H17.8474L17.3218 24.194C17.2814 24.1536 17.3016 24.093 17.3623 24.093L17.7059 24.0323V23.9515L16.7963 22.6781H16.6548L15.7453 23.9515V24.0323L16.0889 24.093C16.1495 24.1132 16.1697 24.1536 16.1293 24.194L15.6038 24.9621H15.5432L14.8559 24.3355C14.8357 24.3153 14.8357 24.2547 14.8762 24.2344L15.1591 24.1132V24.0323L13.9464 23.2036L13.8453 23.244L14.5528 25.427C14.9166 25.2653 15.7453 25.144 16.7155 25.144C17.6857 25.144 18.5144 25.2653 18.8782 25.427L19.5856 23.244L19.5048 23.2036Z" fill="#1E2938"/>
<path d="M20.3336 11.0358C19.2219 11.0358 18.3124 11.2177 18.3124 11.4198C18.3124 11.6421 19.2219 11.8038 20.3336 11.8038C21.4453 11.8038 22.3548 11.6219 22.3548 11.4198C22.3548 11.1975 21.4453 11.0358 20.3336 11.0358Z" fill="#1E2938"/>
<path d="M23.1228 8.61036L21.9505 9.43905L21.9302 9.51991L22.2132 9.64118C22.2738 9.66139 22.2738 9.72203 22.2334 9.74224L21.5058 10.3688H21.4451L20.9196 9.60076C20.8792 9.56033 20.8994 9.49969 20.9601 9.49969L21.3037 9.43905V9.35821L20.3941 8.08484H20.2526L19.3431 9.35821V9.43905L19.6867 9.49969C19.7473 9.51991 19.7675 9.56033 19.7271 9.60076L19.2016 10.3688H19.141L18.4537 9.74224C18.4335 9.72203 18.4335 9.6816 18.4739 9.64118L18.7569 9.51991L18.7367 9.43905L17.524 8.61036L17.4229 8.65078L18.1303 10.8337C18.4942 10.672 19.3229 10.5507 20.293 10.5507C21.2632 10.5507 22.0919 10.672 22.4558 10.8337L23.1632 8.65078L23.1228 8.61036Z" fill="#1E2938"/>
<path d="M12.188 14.0878C12.3699 14.0878 12.5316 14.1282 12.6326 14.2293C12.7135 14.2899 12.7741 14.4112 12.7741 14.5527C12.7741 14.9367 12.4911 15.0984 12.1273 15.0984H11.7231V15.0377C11.8444 15.0377 11.8444 15.0175 11.8444 14.8558V14.3303C11.8444 14.1686 11.8241 14.1484 11.7231 14.1484V14.0878H12.188ZM12.1273 14.8356C12.1273 14.9771 12.1678 14.9973 12.2284 14.9973C12.3699 14.9973 12.4911 14.8558 12.4911 14.5729C12.4911 14.2495 12.3295 14.1484 12.188 14.1484C12.1475 14.1484 12.1273 14.1484 12.1273 14.1686C12.1273 14.1686 12.1273 14.209 12.1273 14.2495V14.8356Z" fill="#1E2938"/>
<path d="M13.9464 14.5731C13.9464 14.8965 13.7241 15.0986 13.4209 15.0986C13.1177 15.0986 12.9156 14.8763 12.9156 14.5933C12.9156 14.3508 13.0773 14.0476 13.4411 14.0476C13.7241 14.0476 13.9464 14.2699 13.9464 14.5731ZM13.1986 14.5327C13.1986 14.8157 13.2996 15.0178 13.4613 15.0178C13.6028 15.0178 13.6634 14.8965 13.6634 14.6135C13.6634 14.3104 13.5624 14.1285 13.4209 14.1285C13.2996 14.1285 13.1986 14.2699 13.1986 14.5327Z" fill="#1E2938"/>
<path d="M15.3007 14.0878V14.1484C15.1794 14.1686 15.1794 14.1686 15.1794 14.3303L15.1996 14.8356C15.1996 14.9973 15.1996 15.0175 15.3209 15.0175V15.0782H14.8358V15.0175C14.957 14.9973 14.957 14.9973 14.957 14.8356V14.2899L14.6539 15.058H14.573L14.29 14.3505L14.2698 14.6941C14.2698 14.8356 14.2698 14.8963 14.2698 14.9569C14.2698 15.0175 14.3103 15.0377 14.4113 15.0377V15.0984H14.0273V15.0377C14.1081 15.0377 14.1283 15.0175 14.1486 14.9569C14.1486 14.9165 14.1688 14.8356 14.1688 14.6941L14.189 14.391C14.2092 14.1888 14.189 14.1888 14.0677 14.1686V14.108H14.4315L14.6943 14.7143L14.9368 14.108H15.3007V14.0878Z" fill="#1E2938"/>
<path d="M15.806 14.8356C15.806 14.9973 15.8262 15.0175 15.9272 15.0175V15.0782H15.4219V15.0175C15.523 15.0175 15.5432 14.9973 15.5432 14.8356V14.3303C15.5432 14.1686 15.523 14.1484 15.4219 14.1484V14.0878H15.9272V14.1484C15.8262 14.1484 15.806 14.1686 15.806 14.3303V14.8356Z" fill="#1E2938"/>
<path d="M13.32 16.9377H13.1785L12.6125 16.2101V16.4931C12.6125 16.6548 12.6125 16.7356 12.6328 16.7963C12.6328 16.8569 12.6732 16.8771 12.7742 16.8771V16.9377H12.3902V16.8771C12.4508 16.8771 12.4913 16.8569 12.5115 16.7963C12.5115 16.7558 12.5317 16.6548 12.5317 16.4931V16.2101C12.5317 16.0888 12.5317 16.0686 12.4913 16.0282C12.4711 15.9878 12.4306 15.9878 12.37 15.9878V15.9271H12.7136L13.2189 16.5739V16.3718C13.2189 16.2101 13.2189 16.1292 13.1987 16.0686C13.1987 16.008 13.1583 15.9878 13.0572 15.9878V15.9271H13.4412V15.9878C13.3604 15.9878 13.32 16.008 13.32 16.0686C13.32 16.109 13.2998 16.2101 13.2998 16.3718V16.9377H13.32Z" fill="#1E2938"/>
<path d="M13.9464 16.9377C13.8454 16.6548 13.7039 16.2909 13.6433 16.1292C13.5826 16.008 13.5624 15.9878 13.4816 15.9878V15.9271H13.9869V15.9878H13.9262C13.8656 15.9878 13.8656 16.008 13.8858 16.0686C13.906 16.1495 14.0273 16.4526 14.0879 16.6143C14.1284 16.4931 14.2294 16.1899 14.2496 16.109C14.2901 16.008 14.2698 16.008 14.2092 15.9878H14.1688V15.9271H14.5326V15.9878C14.4518 16.008 14.4315 16.008 14.3709 16.1495C14.3709 16.1697 14.1688 16.6346 14.0677 16.9377H13.9464Z" fill="#1E2938"/>
<path d="M14.6336 16.6144C14.674 16.6952 14.7548 16.8771 14.9165 16.8771C14.9974 16.8771 15.058 16.8165 15.058 16.7154C15.058 16.6346 14.9974 16.5739 14.8963 16.5335L14.8761 16.5133C14.7548 16.4527 14.6134 16.3718 14.6134 16.2101C14.6134 16.0282 14.7346 15.8867 14.9772 15.8867C15.0176 15.8867 15.0782 15.8867 15.1187 15.9069C15.1591 15.9069 15.1793 15.9271 15.1995 15.9271C15.1995 15.9878 15.2197 16.0686 15.2399 16.1697L15.1793 16.1899C15.1389 16.0888 15.0984 15.9878 14.9772 15.9878C14.8963 15.9878 14.8357 16.0484 14.8357 16.1293C14.8357 16.2101 14.8963 16.2505 14.9974 16.291L15.0378 16.3112C15.1793 16.3718 15.3006 16.4527 15.3006 16.6346C15.3006 16.8165 15.1389 16.958 14.9165 16.958C14.8559 16.958 14.7953 16.9378 14.7548 16.9378C14.7144 16.9175 14.674 16.9175 14.6538 16.8973C14.6336 16.8165 14.6134 16.7356 14.5931 16.6346L14.6336 16.6144Z" fill="#1E2938"/>
<path d="M12.6326 18.5145C12.6326 18.6762 12.6528 18.6964 12.7538 18.6964V18.757H12.2485V18.6964C12.3496 18.6964 12.3698 18.6762 12.3698 18.5145V18.0092C12.3698 17.8475 12.3496 17.8272 12.2485 17.8272V17.7666H12.7538V17.8272C12.6528 17.8272 12.6326 17.8475 12.6326 18.0092V18.5145Z" fill="#1E2938"/>
<path d="M13.2389 18.5347C13.2389 18.6155 13.2389 18.6559 13.2793 18.6762C13.2995 18.6964 13.34 18.6964 13.3804 18.6964C13.4208 18.6964 13.5017 18.6964 13.5219 18.6559C13.5421 18.6357 13.5825 18.5953 13.6027 18.4942L13.6634 18.5145C13.6634 18.5751 13.6229 18.7368 13.6027 18.7772H12.8347V18.7166C12.9559 18.7166 12.9559 18.6964 12.9559 18.5347V18.0294C12.9559 17.8677 12.9357 17.8474 12.8347 17.8474V17.7666H13.34V17.8272C13.2389 17.8272 13.2187 17.8475 13.2187 18.0092V18.5347H13.2389Z" fill="#1E2938"/>
<path d="M14.108 18.5347C14.108 18.6155 14.108 18.6559 14.1485 18.6762C14.1687 18.6964 14.2091 18.6964 14.2495 18.6964C14.2899 18.6964 14.3708 18.6964 14.391 18.6559C14.4112 18.6357 14.4516 18.5953 14.4719 18.4942L14.5325 18.5145C14.5325 18.5751 14.4921 18.7368 14.4719 18.7772H13.724V18.7166C13.8453 18.7166 13.8453 18.6964 13.8453 18.5347V18.0294C13.8453 17.8677 13.8251 17.8474 13.724 17.8474V17.7666H14.2293V17.8272C14.1282 17.8272 14.108 17.8475 14.108 18.0092V18.5347Z" fill="#1E2938"/>
<path d="M14.8357 18.7772C14.7347 18.4942 14.5932 18.1304 14.5325 17.9687C14.4719 17.8475 14.4517 17.8272 14.3708 17.8272V17.7666H14.8762V17.8272H14.8155C14.7549 17.8272 14.7549 17.8475 14.7751 17.9081C14.7953 17.9889 14.9166 18.2921 14.9772 18.4538C15.0176 18.3325 15.1187 18.0294 15.1389 17.9485C15.1793 17.8474 15.1591 17.8474 15.0985 17.8272H15.0581V17.7666H15.4219V17.8272C15.341 17.8474 15.3208 17.8475 15.2602 17.9889C15.2602 18.0091 15.0581 18.474 14.957 18.7772H14.8357Z" fill="#1E2938"/>
<path d="M18.7974 14.0878V14.1484C18.6761 14.1686 18.6761 14.1686 18.6761 14.3303L18.6963 14.8356C18.6963 14.9973 18.6963 15.0175 18.8176 15.0175V15.0782H18.3325V15.0175C18.4537 14.9973 18.4537 14.9973 18.4537 14.8356V14.2899L18.1506 15.058H18.0697L17.7867 14.3505L17.7665 14.6941C17.7665 14.8356 17.7665 14.8963 17.7665 14.9569C17.7665 15.0175 17.807 15.0377 17.908 15.0377V15.0984H17.524V15.0377C17.6048 15.0377 17.625 15.0175 17.6453 14.9569C17.6453 14.9165 17.6655 14.8356 17.6655 14.6941L17.6857 14.391C17.7059 14.1888 17.6857 14.1888 17.5644 14.1686V14.108H17.9282L18.191 14.7143L18.4335 14.108H18.7974V14.0878Z" fill="#1E2938"/>
<path d="M19.3026 14.8356C19.3026 14.9973 19.3228 15.0175 19.4239 15.0175V15.0782H18.9186V15.0175C19.0196 15.0175 19.0399 14.9973 19.0399 14.8356V14.3303C19.0399 14.1686 19.0196 14.1484 18.9186 14.1484V14.0878H19.4239V14.1484C19.3228 14.1484 19.3026 14.1686 19.3026 14.3303V14.8356Z" fill="#1E2938"/>
<path d="M20.4347 15.0984H20.2932L19.7272 14.3707V14.6537C19.7272 14.8154 19.7272 14.8963 19.7474 14.9569C19.7474 15.0175 19.7879 15.0377 19.8889 15.0377V15.0984H19.5049V15.0377C19.5655 15.0377 19.606 15.0175 19.6262 14.9569C19.6262 14.9165 19.6464 14.8356 19.6464 14.6537V14.3707C19.6464 14.2495 19.6464 14.2293 19.606 14.1888C19.5857 14.1484 19.5453 14.1484 19.4847 14.1484V14.0878H19.8283L20.3336 14.7346V14.5324C20.3336 14.3707 20.3336 14.2899 20.3134 14.2293C20.3134 14.1686 20.273 14.1484 20.1517 14.1484V14.0878H20.5357V14.1484C20.4549 14.1484 20.4144 14.1686 20.4144 14.2293C20.4144 14.2697 20.3942 14.3707 20.3942 14.5324V15.0984H20.4347Z" fill="#1E2938"/>
<path d="M21.0813 15.0178H21.1217C21.1823 15.0178 21.1823 14.9976 21.1621 14.9369L21.1015 14.7752H20.8387L20.7983 14.9167C20.7781 14.9774 20.7781 14.9976 20.8387 14.9976H20.8791V15.0582H20.5153V14.9976C20.5962 14.9774 20.6164 14.9774 20.677 14.8561L20.9802 14.0678L21.0813 14.0476L21.1823 14.3306C21.243 14.5125 21.3238 14.6944 21.3642 14.8561C21.4047 14.9976 21.4451 14.9976 21.5259 15.0178V15.0784H21.0408V15.0178H21.0813ZM20.8791 14.6944H21.0813L20.9802 14.3912L20.8791 14.6944Z" fill="#1E2938"/>
<path d="M18.777 16.6751C18.777 16.8368 18.7972 16.857 18.9185 16.857V16.9176H18.3728V16.857C18.494 16.857 18.5142 16.8368 18.5142 16.6751V16.0081H18.494C18.393 16.0081 18.3525 16.0283 18.3323 16.0485C18.3121 16.0687 18.2919 16.1091 18.2717 16.19H18.2111C18.2111 16.0687 18.2313 15.9474 18.2313 15.8666H18.2717C18.2919 15.907 18.3121 15.907 18.3525 15.907H18.9589C18.9993 15.907 18.9993 15.907 19.0398 15.8666H19.0802C19.0802 15.9272 19.0802 16.0687 19.1004 16.1698H19.0398C19.0196 16.0687 18.9993 16.0283 18.9791 16.0081C18.9589 15.9878 18.8983 15.9676 18.8376 15.9676H18.777V16.6751Z" fill="#1E2938"/>
<path d="M19.5857 16.675C19.5857 16.8367 19.6059 16.8569 19.707 16.8569V16.9175H19.2017V16.8569C19.3027 16.8569 19.3229 16.8367 19.3229 16.675V16.1697C19.3229 16.008 19.3027 15.9878 19.2017 15.9878V15.9271H19.707V15.9878C19.6059 15.9878 19.5857 16.008 19.5857 16.1697V16.675Z" fill="#1E2938"/>
<path d="M20.8793 16.4122C20.8793 16.7356 20.6569 16.9378 20.3538 16.9378C20.0506 16.9378 19.8484 16.7154 19.8484 16.4324C19.8484 16.1899 20.0101 15.8867 20.374 15.8867C20.6569 15.9069 20.8793 16.109 20.8793 16.4122ZM20.1314 16.392C20.1314 16.675 20.2325 16.8771 20.3942 16.8771C20.5357 16.8771 20.5963 16.7558 20.5963 16.4729C20.5963 16.1697 20.475 15.9878 20.3538 15.9878C20.2123 15.9878 20.1314 16.1091 20.1314 16.392Z" fill="#1E2938"/>
<path d="M19.242 17.7666V17.8272C19.1207 17.8474 19.1207 17.8475 19.1207 18.0092L19.1409 18.5145C19.1409 18.6762 19.1409 18.6964 19.2622 18.6964V18.757H18.7771V18.6964C18.8984 18.6762 18.8984 18.6762 18.8984 18.5145V17.9687L18.5952 18.7368H18.5144L18.2314 18.0294L18.2112 18.373C18.2112 18.5145 18.2112 18.5751 18.2112 18.6357C18.2112 18.6964 18.2516 18.7166 18.3527 18.7166V18.7772H17.9686V18.7166C18.0495 18.7166 18.0697 18.6964 18.0899 18.6357C18.0899 18.5953 18.1101 18.5145 18.1101 18.373L18.1303 18.0698C18.1505 17.8677 18.1303 17.8677 18.0091 17.8474V17.7666H18.3729L18.6356 18.373L18.8782 17.7666H19.242Z" fill="#1E2938"/>
<path d="M19.4846 18.0092C19.4846 17.8475 19.4644 17.8272 19.3634 17.8272V17.7666H20.091C20.091 17.7868 20.091 17.9081 20.1112 18.0294H20.0506C20.0304 17.9485 20.0101 17.9081 19.9899 17.8879C19.9697 17.8677 19.9091 17.8474 19.8282 17.8474H19.808C19.7474 17.8474 19.7474 17.8475 19.7474 17.9081V18.2113H19.8282C19.9697 18.2113 19.9697 18.2113 19.9899 18.09H20.0506V18.4538H19.9899C19.9697 18.3123 19.9697 18.3123 19.8282 18.3123H19.7474V18.5549C19.7474 18.6357 19.7474 18.6762 19.7878 18.6964C19.808 18.7166 19.8484 18.7166 19.8889 18.7166C19.9495 18.7166 20.0101 18.7166 20.0506 18.6762C20.0708 18.6559 20.1112 18.5953 20.1314 18.5145L20.1921 18.5347C20.1921 18.6155 20.1516 18.7772 20.1314 18.8176H19.3431V18.757C19.4644 18.7368 19.4644 18.7368 19.4644 18.5751V18.0092H19.4846Z" fill="#1E2938"/>
<path d="M20.7175 18.7167H20.758C20.8186 18.7167 20.8186 18.6964 20.7984 18.6358L20.7377 18.4741H20.4952L20.4548 18.6156C20.4346 18.6762 20.4346 18.6964 20.4952 18.6964H20.5356V18.7571H20.192V18.6964C20.2729 18.6762 20.2931 18.6762 20.3537 18.5549L20.6569 17.7667L20.758 17.7465L20.859 18.0294C20.9197 18.2113 21.0005 18.3933 21.0409 18.5549C21.0814 18.6964 21.1218 18.6964 21.2026 18.6964V18.7571H20.7175V18.7167ZM20.5356 18.373H20.7377L20.6367 18.0699L20.5356 18.373Z" fill="#1E2938"/>
<path d="M15.3411 31.1269C15.3411 31.3492 15.1592 31.5311 14.9369 31.5311C14.7146 31.5311 14.5327 31.3492 14.5327 31.1269C14.5327 30.9046 14.7146 30.7227 14.9369 30.7227C15.1592 30.7227 15.3411 30.9046 15.3411 31.1269Z" fill="#1E2938"/>
<path d="M19.424 31.7939C19.424 32.0162 19.2421 32.1981 19.0198 32.1981C18.7974 32.1981 18.6155 32.0162 18.6155 31.7939C18.6155 31.5716 18.7974 31.3896 19.0198 31.3896C19.2421 31.3896 19.424 31.5716 19.424 31.7939Z" fill="#1E2938"/>
<path d="M17.1196 2.74885C17.1196 2.97118 16.9377 3.15309 16.7154 3.15309C16.4931 3.15309 16.3112 2.97118 16.3112 2.74885C16.3112 2.52651 16.4931 2.3446 16.7154 2.3446C16.9377 2.3446 17.1196 2.52651 17.1196 2.74885Z" fill="#1E2938"/>
<path d="M26.6801 6.5082C26.6801 6.73053 26.478 6.89223 26.2557 6.89223C26.0334 6.89223 25.8514 6.69011 25.8717 6.46777C25.8717 6.24544 26.0738 6.08374 26.2961 6.08374C26.5184 6.10395 26.6801 6.28586 26.6801 6.5082Z" fill="#1E2938"/>
<path d="M6.52844 23.7697C6.69013 23.992 6.77098 24.2345 6.75077 24.4771C6.75077 24.7601 6.64971 24.9824 6.1444 25.326L4.68912 26.3568L4.42636 25.9728C4.42636 25.9728 5.92207 24.9218 5.94228 24.9015C6.20504 24.7196 6.3061 24.5984 6.3061 24.3962C6.3061 24.275 6.26568 24.1335 6.16462 23.992C6.02313 23.7899 5.84122 23.709 5.65931 23.709C5.51782 23.709 5.35613 23.8101 5.07316 24.0122L3.71894 24.942L3.45618 24.5579L4.74976 23.6686C5.11358 23.4058 5.39655 23.2441 5.65931 23.2441C6.06355 23.2644 6.34653 23.5069 6.52844 23.7697Z" fill="#1E2938"/>
<path d="M1.8797 20.9398L4.64877 19.9696L4.79026 20.3941L3.21371 22.3142L5.21472 21.5259L5.3562 21.9302L2.62755 22.9812L2.48607 22.5568L4.06262 20.6366L2.02118 21.344L1.8797 20.9398Z" fill="#1E2938"/>
<path d="M4.37733 18.3025L1.47821 18.733L1.5465 19.1929L4.44562 18.7624L4.37733 18.3025Z" fill="#1E2938"/>
<path d="M1.37437 15.2602L1.39458 14.7751L4.28493 15.9475L4.26472 16.4123L1.29352 17.3017V16.8166L3.69877 16.1496L1.37437 15.2602Z" fill="#1E2938"/>
<path d="M4.02224 8.7113C3.618 8.7113 3.41588 8.95385 3.15312 9.41873L2.80951 10.0251L5.37646 11.4197L5.5988 11.0155L4.52755 10.4293L4.58819 10.3081C4.7701 9.98467 4.83073 9.92403 5.29561 9.96446L6.12431 10.0453L6.36686 9.62085L5.39667 9.54C5.19455 9.51979 5.05307 9.49958 4.93179 9.54C4.89137 9.56021 4.85094 9.58043 4.79031 9.62085C4.81052 9.56022 4.83073 9.51979 4.83073 9.45915C4.83073 9.3783 4.81052 9.29746 4.79031 9.21661C4.72967 9.05491 4.6084 8.91343 4.42649 8.81236C4.30521 8.75173 4.16373 8.7113 4.02224 8.7113ZM3.49673 9.60064C3.65842 9.29746 3.79991 9.17618 3.96161 9.17618C4.02224 9.17618 4.1233 9.19639 4.20415 9.23682C4.30521 9.29745 4.40628 9.39852 4.42649 9.49958C4.4467 9.54 4.4467 9.58043 4.4467 9.62085C4.4467 9.80276 4.34564 9.96446 4.24458 10.1464L4.18394 10.2474L3.35524 9.80276L3.49673 9.60064Z" fill="#1E2938"/>
<path d="M7.59781 4.29763L7.22772 4.57898L9.00143 6.91217L9.37152 6.63082L7.59781 4.29763Z" fill="#1E2938"/>
<path d="M8.8327 3.43613L10.7124 2.46594L10.8943 2.80955L10.1667 3.19358L11.3188 5.43714L10.9146 5.65948L9.74225 3.41592L9.01461 3.79995L8.8327 3.43613Z" fill="#1E2938"/>
<path d="M13.5423 1.57654L14.0274 1.43506L13.6433 3.39564L13.9465 4.50732L13.5018 4.62859L13.1987 3.53713L11.804 2.08185L12.2891 1.94036L13.2795 2.97119L13.5423 1.57654Z" fill="#1E2938"/>
<path d="M22.4557 5.55844L23.9312 3.05212L25.3259 3.88083L25.1238 4.22443L24.1334 3.63828L23.7291 4.3255L24.6589 4.87122L24.4568 5.21483L23.527 4.6691L22.86 5.80099L22.4557 5.55844Z" fill="#1E2938"/>
<path d="M29.9545 12.087L31.0257 10.8136L31.1874 11.2987L30.3992 12.2082L31.5715 12.471L31.7332 12.9561L30.1162 12.5721L28.9843 13.9263L28.8226 13.4412L29.6715 12.4306L28.3981 12.1476L28.2365 11.6625L29.9545 12.087Z" fill="#1E2938"/>
<path d="M29.1258 14.957L32.0364 14.7145L32.1778 16.3315L31.7736 16.3517L31.6725 15.1996L30.864 15.2804L30.9651 16.3517L30.5811 16.3921L30.48 15.3006L29.1662 15.4017L29.1258 14.957Z" fill="#1E2938"/>
<path d="M30.4194 17.5439C30.0758 17.5439 29.7726 17.645 29.53 17.8067C29.0854 18.1301 29.0045 18.595 29.0045 18.8577C29.0045 19.8481 29.9343 20.2322 30.6215 20.2322C30.9651 20.2322 31.2683 20.1311 31.5108 19.9694C31.9959 19.6056 32.0364 19.0801 32.0364 18.8982C32.0364 18.0695 31.2279 17.5439 30.4194 17.5439ZM30.6417 19.7875C30.0758 19.7875 29.4088 19.4843 29.4088 18.8982C29.4088 18.696 29.4896 18.4131 29.7322 18.2312C29.9141 18.1099 30.1364 18.029 30.3789 18.029C30.6619 18.029 31.1874 18.1099 31.4704 18.4939C31.5715 18.6152 31.6119 18.7769 31.6119 18.9386C31.6119 19.1609 31.5108 19.4237 31.2885 19.6056C31.1268 19.7269 30.9045 19.7875 30.6417 19.7875Z" fill="#1E2938"/>
<path d="M28.7215 7.82202C28.4183 7.82202 28.1151 7.92309 27.8119 8.105C27.246 8.46882 27.0439 8.97412 27.0439 9.33794C27.0439 9.58049 27.1045 9.82304 27.246 10.0252C27.5492 10.5103 28.0343 10.6315 28.3375 10.6315C28.6407 10.6315 28.964 10.5305 29.2672 10.3486C29.631 10.1262 30.0353 9.70176 30.0353 9.11561C30.0353 8.87306 29.9747 8.63051 29.8332 8.42839C29.5502 8.04436 29.1662 7.82202 28.7215 7.82202ZM28.2566 10.2071C27.9939 10.2071 27.7513 10.106 27.5896 9.84324C27.5088 9.72197 27.4683 9.56028 27.4683 9.41879C27.4683 9.0954 27.6705 8.75179 28.0545 8.50924C28.3173 8.34754 28.5598 8.26669 28.7821 8.26669C29.0651 8.26669 29.2874 8.38796 29.4491 8.63051C29.53 8.772 29.5906 8.9337 29.5906 9.07518C29.5906 9.39858 29.3885 9.72197 29.0247 9.94431C28.7619 10.1262 28.4992 10.2071 28.2566 10.2071Z" fill="#1E2938"/>
<path d="M20.7378 1.79895C20.1314 1.79895 19.6059 2.2032 19.3836 2.93084C19.3432 3.09253 19.3027 3.25423 19.3027 3.41593C19.3027 3.6989 19.3432 3.94145 19.4644 4.16378C19.7272 4.64887 20.2325 4.83078 20.5963 4.83078C20.8187 4.83078 21.0208 4.79036 21.2027 4.6893C21.6878 4.42654 22.0314 3.79996 22.0314 3.19359C22.0314 2.93083 21.9707 2.68829 21.8697 2.48616C21.6474 2.0415 21.2027 1.79895 20.7378 1.79895ZM20.5963 4.40633C20.3942 4.40633 20.0708 4.30527 19.9091 3.98187C19.8283 3.84039 19.7878 3.63826 19.7878 3.45635C19.7878 2.93083 20.1314 2.20319 20.7782 2.20319C21.142 2.20319 21.5867 2.46595 21.5867 3.13296C21.5867 3.55742 21.2835 4.40633 20.5963 4.40633Z" fill="#1E2938"/>
<path d="M4.56778 12.4104L4.95181 12.5114L4.50714 14.1284L1.67743 13.3401L2.16252 11.7231L2.54655 11.8242L2.20295 12.9965L2.97101 13.2188L3.2742 12.1476L3.65823 12.2487L3.35504 13.3199L4.24438 13.5625L4.56778 12.4104Z" fill="#1E2938"/>
<path d="M5.29554 6.30633C5.69978 5.84145 6.12424 5.88187 6.12424 5.88187L6.20509 6.2659C6.20509 6.2659 5.88169 6.2659 5.63914 6.54887C5.53808 6.67015 5.47744 6.79142 5.47744 6.91269C5.47744 7.01375 5.51787 7.0946 5.59872 7.15524C5.80084 7.33715 6.14445 7.13503 6.36678 7.05418C6.52848 6.99354 6.77103 6.89248 7.01358 6.89248C7.19549 6.89248 7.37739 6.9329 7.53909 7.0946C7.74122 7.27651 7.82206 7.47863 7.82206 7.72118C7.82206 7.96373 7.721 8.18607 7.53909 8.4084C7.17527 8.83286 6.66997 8.87328 6.66997 8.87328L6.56891 8.48925C6.87209 8.42861 7.09442 8.30734 7.2157 8.14564C7.31676 8.02436 7.37739 7.88288 7.37739 7.78182C7.37739 7.68076 7.33697 7.55949 7.23591 7.47864C7.15506 7.418 7.07421 7.39779 6.97315 7.39779C6.79124 7.39779 6.56891 7.49885 6.36678 7.5797C6.00296 7.72118 5.63914 7.84245 5.29554 7.53927C5.13384 7.37757 5.03278 7.19567 5.03278 6.97333C5.03278 6.751 5.11363 6.50845 5.29554 6.30633Z" fill="#1E2938"/>
<path d="M28.3578 21.3239L29.4695 21.8292L29.4088 21.9505C29.2673 22.2941 29.2067 22.3547 28.7418 22.3547H27.9131L27.711 22.7994H28.6812C28.8833 22.7994 29.0248 22.7994 29.1461 22.759C29.1865 22.7388 29.2269 22.7186 29.2673 22.6781C29.2673 22.6984 29.2471 22.7186 29.2471 22.759C29.2471 22.8601 29.2673 22.9813 29.3078 23.0622C29.4493 23.3654 29.7929 23.5271 30.0556 23.5271C30.5205 23.5271 30.7024 23.2441 30.9247 22.7388C30.9247 22.7186 31.1875 22.1122 31.1875 22.1122L28.5397 20.9197L28.3578 21.3239ZM30.0758 23.0622C29.9343 23.0622 29.712 22.9813 29.6312 22.759C29.6109 22.6984 29.611 22.6377 29.611 22.5973C29.611 22.4356 29.6918 22.2739 29.7726 22.092L29.8131 21.9707L30.662 22.3547L30.5609 22.5771C30.3992 22.9611 30.2982 23.0622 30.0758 23.0622Z" fill="#1E2938"/>
<path d="M26.8217 24.0931C26.5185 24.4772 26.2962 24.8208 26.2962 25.2452C26.2962 25.6091 26.4579 26.0335 26.8824 26.3771C27.1653 26.5995 27.4887 26.7207 27.8121 26.7207C28.2164 26.7207 28.5398 26.5995 29.0451 25.9729L29.5099 25.3867L27.226 23.5676L26.8217 24.0931ZM27.8525 26.2963C27.6302 26.2963 27.4079 26.2154 27.1653 26.0335C26.943 25.8516 26.7004 25.5686 26.7004 25.2048C26.7004 24.9421 26.8419 24.6995 27.0441 24.4368L27.2462 24.1942L28.9238 25.5282L28.8025 25.6899C28.4791 26.0739 28.2568 26.2963 27.8525 26.2963Z" fill="#1E2938"/>
<path d="M33.4715 16.7155C33.4715 7.49873 25.9525 0 16.7357 0C7.49874 0 0 7.49873 0 16.7155C0 22.2537 2.72865 27.3876 7.29661 30.5205C7.74128 32.1981 9.27741 33.431 11.0965 33.431C11.5816 33.431 12.0667 33.33 12.5114 33.1683C13.1177 33.3704 13.7645 33.5321 14.3911 33.6736C14.2092 34.1789 13.9464 34.664 13.7039 35.0884C13.7039 35.0884 13.7039 35.0884 13.7241 35.0884H13.7039L14.0475 35.432C14.1283 35.3916 14.2294 35.3512 14.3507 35.3512C14.6943 35.3512 14.9773 35.6342 14.9773 35.9778C14.9773 36.3214 14.6943 36.6043 14.3507 36.6043C14.0475 36.6043 13.7847 36.4022 13.6433 36.2001C13.6433 36.2001 13.5624 36.4831 13.5624 36.8469C13.5624 38.0394 14.8762 39.4138 16.6953 40C18.5144 39.4341 19.8282 38.0596 19.8282 36.8469C19.8282 36.4426 19.7473 36.2001 19.7473 36.2001C19.6059 36.3618 19.3835 36.6043 19.0399 36.6043C18.6963 36.6043 18.4133 36.3214 18.4133 35.9778C18.4133 35.6342 18.6963 35.3512 19.0399 35.3512C19.1612 35.3512 19.2623 35.3916 19.3633 35.4522L19.7069 35.1086H19.7271C19.5452 34.6438 19.4037 34.2395 19.3027 33.8353C22.3143 33.431 24.861 32.1577 26.8621 30.0354C31.0662 26.8216 33.4715 21.9707 33.4715 16.7155ZM11.0965 32.9661C9.19656 32.9661 7.64022 31.4098 7.64022 29.5099C7.64022 28.9035 7.80192 28.3578 8.06468 27.8524C8.24659 28.0141 8.4285 28.1758 8.63062 28.3578C8.46892 28.7216 8.36786 29.1056 8.36786 29.5301C8.36786 30.5609 8.89338 31.43 9.88378 32.0162C10.4497 32.3598 11.0965 32.663 11.7837 32.9257C11.5614 32.9459 11.3391 32.9661 11.0965 32.9661ZM16.7357 27.9333C16.0283 27.9333 15.3209 27.8727 14.6134 27.7312C13.9464 26.4174 12.572 25.5685 11.0965 25.5685C10.7327 25.5685 10.3891 25.6291 10.0455 25.71C7.19555 23.6079 5.49773 20.2324 5.49773 16.6953C5.49773 10.5104 10.5306 5.47751 16.7155 5.47751C22.9005 5.47751 27.9333 10.5104 27.9333 16.6953C27.9535 22.9005 22.9207 27.9333 16.7357 27.9333ZM19.2218 28.1354C18.8782 28.6205 18.6761 29.2875 18.6357 29.9545C17.5644 29.6715 16.6145 29.3077 15.7655 28.9237C15.9272 28.6205 16.3921 28.3982 16.7357 28.3982C17.5846 28.3982 18.4133 28.2971 19.2218 28.1354ZM15.6645 28.3578C15.523 28.4588 15.4017 28.6003 15.3209 28.7216C14.8964 28.5195 14.3709 28.2567 14.0071 28.0546C14.5124 28.1758 15.1592 28.2971 15.6645 28.3578ZM11.0965 26.0536C12.2486 26.0536 13.3401 26.6397 13.9666 27.5897C13.4209 27.4482 12.8752 27.2663 12.3295 27.044H12.3092C11.9454 26.862 11.5412 26.7812 11.1167 26.7812C10.187 26.7812 9.37847 27.2259 8.87317 27.9131C8.67105 27.7918 8.44871 27.6705 8.24659 27.5493C8.89338 26.6397 9.9242 26.0536 11.0965 26.0536ZM19.0399 34.8661C18.4133 34.8661 17.908 35.3108 17.908 35.9778C17.908 36.6246 18.4133 37.0894 19.0399 37.0894C19.141 37.0894 19.2218 37.0692 19.3027 37.049C19.1814 37.9788 18.0899 39.0096 16.6953 39.4745C15.3209 39.0096 14.2294 37.9586 14.0879 37.049C14.1688 37.0692 14.2698 37.0894 14.3507 37.0894C15.0177 37.0894 15.4826 36.6246 15.4826 35.9778C15.4826 35.3714 14.9975 34.8863 14.3911 34.8661C14.573 34.5225 14.7549 34.1587 14.8964 33.7544C15.6645 33.8959 16.4123 33.9565 17.1198 33.9565C17.7059 33.9565 18.2516 33.9161 18.7974 33.8757C18.8782 34.1991 18.9793 34.5225 19.1006 34.8661C19.0803 34.8661 19.0601 34.8661 19.0399 34.8661ZM17.1198 33.4917C14.8762 33.4917 12.0667 32.7236 10.1465 31.5917C9.56039 31.2481 8.87317 30.6013 8.87317 29.5099C8.87317 29.2067 8.93381 28.9237 9.03487 28.6812C9.76251 29.2673 10.4901 29.8332 10.955 30.096C11.0561 30.1566 11.1167 30.1769 11.2582 30.1769C11.5614 30.1769 11.8039 29.9343 11.8039 29.6311C11.8039 29.4088 11.6827 29.2067 11.4805 29.1258C11.0763 28.9439 10.2476 28.6003 9.35826 28.1354C9.78272 27.5897 10.4295 27.2259 11.1572 27.2259C11.5008 27.2259 11.8242 27.3067 12.1273 27.4482L12.7337 27.812C14.6943 29.0045 19.7271 32.0768 25.7908 30.379C23.4664 32.4608 20.6367 33.4917 17.1198 33.4917ZM26.5387 29.6513C23.81 30.6215 21.2835 30.5407 19.1208 30.0556C19.2016 29.0854 19.5857 28.0546 20.2122 27.8524C24.9823 26.377 28.4588 21.9303 28.4588 16.6953C28.4588 10.2476 23.2036 5.01263 16.7559 5.01263C10.288 5.01263 5.05306 10.2476 5.05306 16.6953C5.05306 20.2729 6.73067 23.6887 9.54017 25.8919C8.87317 26.195 8.30723 26.6599 7.88277 27.2461C7.66043 27.1046 7.45831 26.9429 7.2764 26.8014L7.17534 26.9025C7.29661 27.0642 7.49874 27.2663 7.74128 27.4886C7.39768 28.0748 7.19555 28.762 7.19555 29.4896C7.19555 29.6109 7.19555 29.712 7.21577 29.8333C3.01162 26.7812 0.525518 21.9101 0.525518 16.7155C0.525518 7.76149 7.82213 0.464879 16.7762 0.464879C25.7302 0.464879 33.0268 7.74128 33.0268 16.7155C32.9661 21.8494 30.6215 26.5589 26.5387 29.6513Z" fill="#1E2938"/>
<path d="M54.4114 26.2558C54.4114 30.7227 50.9551 33.9768 46.6499 33.9768C42.2639 33.9768 38.8884 30.7024 38.8884 26.4174C38.8884 21.9505 42.3447 18.6964 46.6499 18.6964C51.036 18.6762 54.4114 21.9708 54.4114 26.2558ZM51.9455 26.3366C51.9455 22.2739 49.9647 19.424 46.6499 19.424C43.0319 19.424 41.3543 22.8399 41.3543 26.3366C41.3543 30.3993 43.3351 33.229 46.6499 33.229C50.2679 33.229 51.9455 29.8131 51.9455 26.3366Z" fill="#1E2938"/>
<path d="M101.809 26.2558C101.809 30.7227 98.3528 33.9768 94.0476 33.9768C89.6615 33.9768 86.2861 30.7024 86.2861 26.4174C86.2861 21.9505 89.7424 18.6964 94.0476 18.6964C98.4538 18.6762 101.809 21.9708 101.809 26.2558ZM99.3432 26.3366C99.3432 22.2739 97.3624 19.424 94.0476 19.424C90.4296 19.424 88.752 22.8399 88.752 26.3366C88.752 30.3993 90.7328 33.229 94.0476 33.229C97.6656 33.229 99.3432 29.8131 99.3432 26.3366Z" fill="#1E2938"/>
<path d="M107.812 26.3973H109.651C112.441 26.3973 113.067 24.6388 113.067 22.941C113.067 21.6676 112.481 20.4751 111.167 19.9092C110.48 19.6262 109.813 19.6262 108.903 19.6262H107.792V26.3973H107.812ZM111.228 28.7823C110.359 27.5494 110.035 27.1047 108.964 27.1047H107.812V32.1173C107.812 32.5216 107.974 32.7237 108.439 32.8046L110.116 33.1684V33.7141H103.507V33.1684L105.023 32.8046C105.467 32.6833 105.629 32.5216 105.629 32.1173V20.5357C105.629 20.1315 105.467 19.9698 105.023 19.8283L103.507 19.4645V18.939H109.954C111.309 18.939 112.259 19.0602 113.027 19.3432C114.624 19.9698 115.533 21.4857 115.533 22.9208C115.533 24.7399 114.179 26.2558 111.915 26.7813V26.8622C112.36 27.0643 112.623 27.3473 114.219 29.4493L116.241 32.1173C116.523 32.5216 116.908 32.7641 117.352 32.8652L118.828 33.1886V33.7343H115.291C114.886 33.7343 114.664 33.613 114.3 33.1077L111.228 28.7823Z" fill="#1E2938"/>
<path d="M82.2638 23.992H82.8702V28.9238H82.2638L81.9 27.4483C81.7787 26.9228 81.4553 26.7005 80.95 26.7005H77.3725V32.1173C77.3725 32.5216 77.5342 32.7237 77.999 32.8046L79.6767 33.1684V33.7141H73.0673V33.1684L74.5832 32.8046C75.0278 32.6833 75.2098 32.5216 75.2098 32.1173V20.5357C75.2098 20.1315 75.0481 19.9698 74.5832 19.8485L73.0673 19.4847V18.939H84.2446V22.6378H83.618L82.9308 20.4145C82.7691 19.8485 82.5266 19.6262 82.0213 19.6262H77.3725V25.993H80.95C81.4351 25.993 81.7383 25.7909 81.9 25.2452L82.2638 23.992Z" fill="#1E2938"/>
<path d="M120 33.7141V33.1684L121.516 32.8046C121.961 32.6833 122.143 32.5216 122.143 32.1173V20.5357C122.143 20.1315 121.981 19.9698 121.516 19.8485L120 19.4847V18.939H126.953C128.833 18.939 130.207 19.1815 131.299 19.6868C134.088 20.9602 135.361 23.7091 135.361 26.4175C135.361 29.0451 134.371 31.511 131.865 32.8248C130.712 33.4513 129.116 33.7343 127.014 33.7343H120V33.7141ZM124.325 19.6262V32.3599C124.325 32.9056 124.447 33.0269 124.992 33.0269H126.791C128.509 33.0269 129.783 32.7843 130.692 32.1173C132.208 31.0057 132.916 29.0047 132.916 26.4579C132.916 23.9516 132.208 21.4857 130.167 20.2932C129.298 19.7879 128.186 19.6262 126.468 19.6262H124.325Z" fill="#1E2938"/>
<path d="M60.2123 33.1886V33.7344H54.9976V33.1886L56.3114 32.8653C56.7964 32.744 57.1401 32.5823 57.4634 32.1983L61.991 26.5388L57.4634 20.5358C57.1805 20.1316 56.8167 19.9294 56.3518 19.7879L55.1188 19.4645V18.9188H61.607V19.4645L60.2123 19.7475C59.7272 19.8284 59.8485 20.0305 60.091 20.3741L63.4261 25.1442H63.5069L66.9228 20.3741C67.1653 20.0507 67.2462 19.9294 66.8015 19.8082L65.4877 19.4848V18.939H70.7025V19.4848L69.3887 19.8082C68.9036 19.9294 68.56 20.0911 68.2366 20.4549L63.9718 25.8314L68.7014 32.1174C68.9844 32.5216 69.3685 32.7238 69.8131 32.8653L71.0461 33.1886V33.7344H64.5579V33.1886L65.9526 32.9057C66.4377 32.8248 66.3568 32.6631 66.1143 32.3195L62.4963 27.226H62.4154L58.757 32.2791C58.5145 32.6025 58.4336 32.7238 58.8783 32.845L60.2123 33.1886Z" fill="#1E2938"/>
<path d="M44.6488 11.9656C44.2445 12.3699 43.6179 12.6529 42.769 12.6529C42.0212 12.6529 41.334 12.4103 40.8691 11.9454C40.2223 11.2986 40.2627 10.4902 40.2627 9.62103V5.51794H41.0914V9.94442C41.0914 10.5104 41.0712 11.0561 41.5159 11.4806C41.8191 11.7837 42.2839 11.9454 42.8094 11.9454C43.335 11.9454 43.7392 11.7635 44.002 11.5008C44.4871 11.0157 44.4466 10.4902 44.4466 9.23699V5.53816H45.2753V9.03487C45.2753 10.3285 45.3158 11.2986 44.6488 11.9656Z" fill="#1E2938"/>
<path d="M52.0869 12.5114L48.7114 6.7711L48.7316 12.5114H47.9636V5.51794H48.8327L52.2081 11.2986L52.1879 5.51794H52.956V12.5114H52.0869Z" fill="#1E2938"/>
<path d="M56.7357 5.51794H55.8867V12.5316H56.7357V5.51794Z" fill="#1E2938"/>
<path d="M61.9707 12.5114H61.0005L58.5751 5.51794H59.4644L61.5058 11.7029L63.6079 5.51794H64.4164L61.9707 12.5114Z" fill="#1E2938"/>
<path d="M66.3365 12.5114V5.51794H70.1364V6.20516H67.1652V8.52956H69.9545V9.21679H67.1652V11.8039H70.2173V12.5114H66.3365Z" fill="#1E2938"/>
<path d="M75.5533 6.56893C75.149 6.16468 74.6235 6.1849 74.0576 6.1849H73.2895V8.81249H73.5725C74.2799 8.81249 75.048 8.85291 75.5129 8.36782C75.7352 8.14548 75.8767 7.80187 75.8767 7.45827C75.8767 7.05402 75.715 6.73063 75.5533 6.56893ZM76.3214 12.5113L75.5129 10.6922C75.0076 9.58055 74.7852 9.45928 73.7746 9.45928H73.2895V12.5113H72.4608V5.49768H73.9767C74.9065 5.49768 75.6139 5.49768 76.1597 6.04341C76.5033 6.38702 76.7054 6.8519 76.7054 7.43805C76.7054 7.92315 76.5639 8.32739 76.2607 8.65079C76.0182 8.91355 75.5937 9.1561 75.1288 9.19652C75.3714 9.21673 75.5735 9.338 75.715 9.47949C75.8969 9.6614 76.0384 9.96458 76.2405 10.4093L77.1905 12.5113H76.3214Z" fill="#1E2938"/>
<path d="M86.2254 5.51794H85.3765V12.5316H86.2254V5.51794Z" fill="#1E2938"/>
<path d="M91.0358 6.20516V12.5114H90.1869V6.20516H88.105V5.51794H93.0975V6.20516H91.0358Z" fill="#1E2938"/>
<path d="M97.14 9.7423V12.5114H96.3113V9.7423L94.088 5.51794H95.038L96.7762 8.79233L98.4538 5.51794H99.3634L97.14 9.7423Z" fill="#1E2938"/>
<path d="M107.226 6.10416C105.852 6.10416 104.962 7.25626 104.962 9.01472C104.962 10.753 105.953 11.9455 107.266 11.9455C108.722 11.9455 109.55 10.6923 109.55 8.95408C109.55 7.23604 108.58 6.10416 107.226 6.10416ZM107.226 12.6529C105.407 12.6529 104.093 11.1572 104.093 9.05514C104.093 6.89243 105.407 5.39673 107.307 5.39673C109.146 5.39673 110.44 6.89243 110.44 8.99451C110.42 11.1572 109.106 12.6529 107.226 12.6529Z" fill="#1E2938"/>
<path d="M113.552 6.20516V8.52956H116.261V9.19657H113.552V12.5114H112.724V5.51794H116.443V6.20516H113.552Z" fill="#1E2938"/>
<path d="M78.8883 7.21566C78.8883 6.14441 79.7574 5.37634 81.0105 5.37634C82.2839 5.37634 82.9105 6.04335 82.9711 6.10398L82.5669 6.60929C82.4052 6.48802 81.8392 6.08377 81.0712 6.08377C80.1818 6.08377 79.6765 6.54865 79.6765 7.17523C79.6765 7.47842 79.7978 7.70075 79.9999 7.88266C80.2425 8.105 80.5861 8.26669 80.9701 8.42839C81.435 8.65072 82.0818 8.89327 82.5062 9.33794C82.8094 9.64112 83.0318 10.0454 83.0318 10.5911C83.0318 11.7634 82.2233 12.6527 80.768 12.6527C79.5351 12.6527 78.7468 11.9655 78.6659 11.9049L79.05 11.339C79.2521 11.4804 80.0201 11.9453 80.7478 11.9453C81.7988 11.9453 82.2031 11.3592 82.2031 10.6719C82.2031 10.3486 82.0616 10.0858 81.8392 9.88367C81.5159 9.56027 81.0105 9.35815 80.5457 9.13582C80.0808 8.91348 79.6159 8.69115 79.2925 8.34754C79.1106 8.14542 78.8883 7.7816 78.8883 7.21566Z" fill="#1E2938"/>
</svg>
