<svg width="180" height="40" viewBox="0 0 180 40" fill="none" xmlns="http://www.w3.org/2000/svg">
<path d="M3.572 19.7264C4.88693 21.3161 6.86913 22.1993 8.91021 22.1208C10.5391 22.1993 12.1288 21.5909 13.2671 20.4329C14.3073 19.3732 14.8961 17.9209 14.8764 16.4293C14.9549 14.9966 14.3858 13.6228 13.326 12.6612C12.4428 11.8173 11.2653 11.3266 10.0289 11.2874C9.53823 11.307 9.06722 11.3659 8.5962 11.464C8.22331 11.5817 7.83079 11.6406 7.4579 11.6799C6.614 11.6799 6.18223 11.1696 6.18223 10.1491C6.18223 8.422 7.04576 6.95007 8.7532 5.71365C9.24385 5.36039 9.75412 5.04637 10.3036 4.77161C11.9915 4.04546 13.797 3.6922 15.6222 3.71182C19.3119 3.65295 22.9426 4.71274 26.0239 6.73419L23.7473 9.99206L26.907 12.0724L31.1854 5.96878L29.8116 4.88937C25.7884 1.65112 20.7642 -0.07594 15.6026 0.00256291C7.28127 0.00256291 1.45242 5.10525 1.45242 12.4256V12.5238V12.9555C1.49167 15.8405 2.21783 18.1171 3.572 19.7264Z" fill="#1E2938"/>
<path d="M25.0817 17.8033C23.4528 17.7248 21.8631 18.3332 20.7248 19.4911C19.6846 20.5509 19.0959 22.0032 19.1155 23.4947C19.0566 24.9078 19.6257 26.2816 20.6659 27.2432C21.5491 28.1264 22.7462 28.617 24.0023 28.6367C24.4929 28.617 24.964 28.5582 25.435 28.46C25.8079 28.3423 26.2004 28.2834 26.5733 28.2442C27.4172 28.2442 27.8489 28.7544 27.8489 29.775C27.8489 30.1282 27.8097 30.5011 27.7312 30.8544C26.3181 34.3085 22.707 36.2907 17.4669 36.2907C13.0904 36.3103 8.81196 34.8973 5.27933 32.2871L8.12506 28.9507L5.12232 26.6348L0 32.7188L1.2953 33.8964C5.73072 37.8411 11.4811 40.0196 17.4277 40C18.0949 40 18.7426 40 19.3706 39.9215C22.8051 39.8037 26.1022 38.5084 28.7125 36.2711C31.2049 34.0337 32.4414 30.9133 32.4414 26.9685C32.4414 24.1031 31.7545 21.8658 30.4003 20.2369C29.1246 18.6472 27.1424 17.7444 25.0817 17.8033Z" fill="#1E2938"/>
<path d="M124.192 9.40308H126.547V30.2849H124.192V9.40308Z" fill="#1E2938"/>
<path d="M147.703 19.5105C149.744 18.7647 151.059 16.8021 151.02 14.6433C151.02 11.4443 148.331 9.42285 144.21 9.42285H135.32V30.3046H144.603C149.175 30.3046 152.178 28.185 152.178 24.5739C152.178 21.6301 150.176 20.2366 147.703 19.5105ZM137.655 11.5228H144.053C147.036 11.5228 148.685 12.877 148.685 14.9573C148.685 17.4301 146.722 18.7254 143.876 18.7254H137.655V11.5228ZM144.661 28.185H137.655V20.845H144.249C147.9 20.845 149.803 22.16 149.803 24.4562C149.803 26.7524 147.841 28.185 144.661 28.185Z" fill="#1E2938"/>
<path d="M82.8993 28.4795C78.3069 28.4795 74.8135 24.6917 74.8135 19.8245C74.8135 14.9574 78.2872 11.2285 82.8993 11.2285C85.3918 11.2481 87.7665 12.2883 89.4543 14.0938L91.0636 12.3668C88.944 10.1687 85.9805 8.97152 82.9189 9.05002C76.7761 9.05002 72.3603 13.9172 72.3603 19.8834C72.3603 25.8496 76.8349 30.6383 82.86 30.6383C86.059 30.7168 89.1403 29.3626 91.2599 26.9683L89.6505 25.4571C87.6291 27.3804 85.7646 28.4795 82.8993 28.4795Z" fill="#1E2938"/>
<path d="M59.2895 18.7256C54.697 17.7443 53.6176 16.6453 53.6176 14.6435C53.6176 12.6416 55.3447 11.2482 58.053 11.2482C60.2707 11.2482 62.4099 12.0529 64.0781 13.5052L65.4519 11.68C63.4109 9.95291 60.8006 9.0305 58.1119 9.109C54.1083 9.109 51.2429 11.5033 51.2429 14.8397C51.2429 18.1761 53.4606 19.8639 58.2493 20.9041C62.6258 21.8265 63.6856 22.9451 63.6856 24.9077C63.6856 27.0273 61.8408 28.4992 59.0343 28.4992C56.326 28.5385 53.7354 27.4591 51.8317 25.5554L50.399 27.2628C52.6952 29.4413 55.7568 30.6581 58.9362 30.6188C63.0772 30.6188 66.0603 28.2833 66.0603 24.6722C66.08 21.434 63.9408 19.7461 59.2895 18.7256Z" fill="#1E2938"/>
<path d="M114.693 15.6441C114.693 11.8759 111.749 9.40308 107.137 9.40308H98.1484V30.2849H100.503V22.1598H106.47L112.534 30.2652H115.439L109.041 21.7673C112.299 21.1785 114.693 19.1374 114.693 15.6441ZM100.523 20.0402V11.5815H106.96C110.336 11.5815 112.299 13.132 112.299 15.7226C112.299 18.3132 110.042 20.0206 106.921 20.0206H100.523V20.0402Z" fill="#1E2938"/>
<path d="M168.664 9.40308H161.422V30.2849H168.664C175.219 30.2849 179.772 25.7121 179.772 19.8047C179.772 13.917 175.258 9.40308 168.664 9.40308ZM168.664 28.126H163.757V11.6012H168.664C173.943 11.6012 177.319 15.2515 177.319 19.9028C177.319 24.5345 173.963 28.126 168.664 28.126Z" fill="#1E2938"/>
</svg>
