<svg width="199" height="40" viewBox="0 0 199 40" fill="none" xmlns="http://www.w3.org/2000/svg">
<path fill-rule="evenodd" clip-rule="evenodd" d="M75.5124 10.8225C79.939 10.8272 82.1834 10.911 84.0517 11.5681C88.7622 13.2128 89.4243 16.588 89.4243 18.8928C89.4243 21.7246 88.4014 24.7301 84.5493 25.8442L90.2107 35.6159H93.6511V39.6651C92.2869 39.7466 91.4251 39.8247 90.5177 39.8889C89.6121 39.9623 88.8872 40 88.3451 40C87.2319 40 86.3993 39.8325 85.849 39.4915C85.2909 39.1606 84.7946 38.5808 84.3625 37.7438L78.4165 26.8492H75.1901V33.2578H69.0029V15.2183H66.3781V10.8222L75.5124 10.8225ZM19.203 10.7213C20.5964 10.7213 21.5435 10.9884 22.0501 11.5195C22.5562 12.055 22.7943 12.9311 22.7943 14.1503V28.773H25.5525V32.7492C25.5525 32.7492 22.2059 33.2119 20.2141 33.2119C19.1422 33.2119 18.3449 33.0553 17.8089 32.7492C17.2764 32.4476 16.9193 31.9591 16.7398 31.2896C15.7601 32.0209 13.2495 33.6807 10.1819 33.6807C8.18737 33.6807 6.02467 33.1076 4.40688 31.5634C3.79139 30.9705 2.75927 29.3284 2.75927 26.117V15.1565H0V11.1346C0.862449 11.0085 1.81002 10.9131 2.85326 10.8342C3.88419 10.755 4.71743 10.7213 5.3423 10.7213C6.73688 10.7213 7.68622 10.9884 8.19447 11.5195C8.69623 12.055 8.94815 12.9311 8.94815 14.1503V25.2486C8.94815 26.255 9.12326 27.0747 9.66035 27.4863C11.0062 28.526 13.8081 28.1374 14.5353 28.0581C15.2645 27.9852 15.9564 27.8731 16.6078 27.7175V15.1565H13.8577V11.1346C14.723 11.0085 15.6706 10.9131 16.7083 10.8342C17.7465 10.755 18.5808 10.7213 19.203 10.7213ZM59.0713 10.7213C60.4987 10.7213 61.4549 10.9884 61.9634 11.5195C62.4723 12.055 62.7196 12.9323 62.7196 14.1503V33.2591H56.5324V15.1577H53.5954V11.176C54.0346 11.1158 54.5119 11.0649 55.0221 11.0157C55.0221 11.0157 57.7828 10.7213 59.0713 10.7213ZM42.982 10.2628C48.0088 10.2628 49.7028 14.0726 49.7028 17.8114V28.773H52.4004V32.7492C52.4004 32.7492 50.0188 33.0471 49.5483 33.0971C49.0741 33.1385 48.6111 33.1705 48.1708 33.1891C47.7662 33.1997 47.4412 33.2051 47.163 33.2119H47.0583C46.9955 33.2119 46.9398 33.2027 46.8766 33.2027C46.7638 33.1997 46.6538 33.1987 46.5433 33.1891C46.1181 33.1681 45.7441 33.1144 45.4213 33.0336C45.3915 33.0281 45.3721 33.0217 45.3466 33.0135C45.0847 32.9476 44.5799 32.7601 44.2698 32.4299C43.7599 31.8874 43.518 30.996 43.518 29.7739V18.6794C43.518 17.6452 43.2775 16.894 42.8003 16.4381C42.5044 16.1641 42.1182 15.9719 41.647 15.8902C38.8578 15.3996 36.3926 16.0593 35.7683 16.2137V33.023H29.5766V15.1565H26.5095V11.1752C27.3699 11.0244 30.2972 10.7213 32.0734 10.7213C33.172 10.7213 33.9968 10.8731 34.5488 11.1752C35.0947 11.481 35.4724 11.9568 35.6776 12.5967C38.2759 10.4226 41.6772 10.2628 42.982 10.2628ZM78.6054 15.0949H75.1901V22.6717H78.8482C82.0393 22.6717 83.2483 20.5907 83.2483 18.8107C83.2483 17.1127 82.7588 15.0949 78.6054 15.0949ZM58.6708 0C59.7024 0 60.4902 0.232048 61.0034 0.685407C61.497 1.13373 61.7511 1.90375 61.7511 2.98231V3.5924C61.7511 4.67236 61.5035 5.43304 61.0034 5.86516C60.4902 6.3035 59.7061 6.52783 58.6708 6.52783H58.3453C57.2885 6.52783 56.4926 6.30812 55.9997 5.86808C55.5126 5.43728 55.2623 4.67097 55.2623 3.5924V2.98231C55.2623 1.90905 55.5126 1.13373 55.9997 0.685407C56.5028 0.230523 57.2923 0 58.3453 0H58.6708Z" fill="#1E2938"/>
<path d="M99.8875 19.5184H105.417V18.3752H101.18V10.8201H99.8875V19.5184ZM112.728 19.5184H114.069L110.652 10.8201H109.459L106.042 19.5184H107.372L108.204 17.3066H111.895L112.728 19.5184ZM108.639 16.1758L110.056 12.4355L111.472 16.1758H108.639ZM121.819 19.6178C123.82 19.6178 125.162 18.4622 125.162 16.474V10.8201H123.919V16.5113C123.919 17.7539 123.074 18.4622 121.819 18.4622C120.577 18.4622 119.731 17.7539 119.731 16.5113V10.8201H118.489V16.474C118.489 18.4622 119.831 19.6178 121.819 19.6178ZM127.141 19.5184H128.434V12.8332L132.634 19.5184H134.063V10.8201H132.77V17.5178L128.583 10.8201H127.141V19.5184ZM136.202 19.5184H137.495V10.8201H136.202V19.5184ZM142.081 19.5184H143.361L146.605 10.8201H145.3L142.715 17.9651L140.143 10.8201H138.838L142.081 19.5184ZM147.942 19.5184H153.659V18.3752H149.235V15.6042H152.702V14.461H149.235V11.9633H153.522V10.8201H147.942V19.5184ZM160.36 15.393C161.13 15.0077 161.64 14.3616 161.64 13.4296C161.64 11.8763 160.571 10.8201 158.819 10.8201H155.414V19.5184H156.706V16.0888H158.881C159.627 16.0888 160.136 16.6356 160.198 17.406L160.372 19.5184H161.627L161.453 17.2942C161.404 16.4492 160.994 15.7657 160.36 15.393ZM156.706 11.9385H158.782C159.912 11.9385 160.347 12.6343 160.347 13.4296C160.347 14.2125 159.912 14.9456 158.782 14.9456H156.706V11.9385ZM166.532 19.6178C168.396 19.6178 169.738 18.6859 169.738 17.0953C169.738 13.7775 164.78 15.1817 164.78 13.0692C164.78 12.3361 165.414 11.8639 166.458 11.8639C167.526 11.8639 168.222 12.4479 168.309 13.3426H169.564C169.452 11.7521 168.235 10.7207 166.458 10.7207C164.705 10.7207 163.488 11.6775 163.488 13.0692C163.488 16.2752 168.421 15.0201 168.421 17.1078C168.421 18.0521 167.625 18.4746 166.532 18.4746C165.302 18.4746 164.569 17.7539 164.469 16.6356H163.214C163.314 18.4374 164.569 19.6178 166.532 19.6178ZM171.413 19.5184H172.706V10.8201H171.413V19.5184ZM174.844 19.5184H177.516C179.939 19.5184 181.902 18.0024 181.902 15.1693C181.902 12.3361 179.939 10.8201 177.516 10.8201H174.844V19.5184ZM176.136 18.3752V11.9633H177.441C179.056 11.9633 180.573 12.8704 180.573 15.1693C180.573 17.4681 179.056 18.3752 177.441 18.3752H176.136ZM189.213 19.5184H190.555L187.138 10.8201H185.945L182.528 19.5184H183.857L184.69 17.3066H188.38L189.213 19.5184ZM185.125 16.1758L186.541 12.4355L187.958 16.1758H185.125ZM191.85 19.5184H194.522C196.945 19.5184 198.909 18.0024 198.909 15.1693C198.909 12.3361 196.945 10.8201 194.522 10.8201H191.85V19.5184ZM193.143 18.3752V11.9633H194.448C196.063 11.9633 197.579 12.8704 197.579 15.1693C197.579 17.4681 196.063 18.3752 194.448 18.3752H193.143ZM99.8875 33.1063H105.603V31.9629H101.18V29.1919H104.647V28.0487H101.18V25.5511H105.467V24.4078H99.8875V33.1063ZM107.359 33.1063H108.652V26.4209L112.852 33.1063H114.281V24.4078H112.988V31.1055L108.801 24.4078H107.359V33.1063ZM119.657 33.1063H120.949V24.4078H119.657V33.1063ZM123.088 33.1063H124.38V26.4209L128.58 33.1063H130.009V24.4078H128.717V31.1055L124.53 24.4078H123.088V33.1063ZM134.125 33.1063H135.418V25.5511H138.139V24.4078H131.404V25.5511H134.125V33.1063ZM139.439 33.1063H145.155V31.9629H140.732V29.1919H144.198V28.0487H140.732V25.5511H145.018V24.4078H139.439V33.1063ZM151.857 28.9807C152.627 28.5955 153.136 27.9493 153.136 27.0173C153.136 25.4641 152.068 24.4078 150.316 24.4078H146.911V33.1063H148.203V29.6766H150.378C151.123 29.6766 151.633 30.2233 151.695 30.9937L151.869 33.1063H153.124L152.95 30.8819C152.9 30.0369 152.49 29.3535 151.857 28.9807ZM148.203 25.5262H150.278C151.409 25.5262 151.844 26.2221 151.844 27.0173C151.844 27.8002 151.409 28.5334 150.278 28.5334H148.203V25.5262ZM155.402 33.1063H156.694V26.4209L160.894 33.1063H162.324V24.4078H161.031V31.1055L156.844 24.4078H155.402V33.1063ZM164.463 33.1063H170.18V31.9629H165.756V29.1919H169.223V28.0487H165.756V25.5511H170.043V24.4078H164.463V33.1063ZM173.911 33.1063H175.203V25.5511H177.925V24.4078H171.19V25.5511H173.911V33.1063Z" fill="#1E2938"/>
</svg>
